<?xml version="1.0"?>
<!-- Generated by SVGo and Plotinum VG -->
<svg width="216pt" height="216pt" viewBox="0 0 216 216"
	xmlns="http://www.w3.org/2000/svg"
	xmlns:xlink="http://www.w3.org/1999/xlink">
<g transform="scale(1, -1) translate(0, -216)">
<path d="M0,0L216,0L216,216L0,216Z" style="fill:#FFFFFF" />
<text x="123.33" y="-3.8613" transform="scale(1, -1)"
	style="font-family:Times;font-weight:normal;font-style:normal;font-size:12px">x</text>
<text x="48.804" y="-15.602" transform="scale(1, -1)"
	style="font-family:Times;font-weight:normal;font-style:normal;font-size:10px">-3</text>
<text x="99.378" y="-15.602" transform="scale(1, -1)"
	style="font-family:Times;font-weight:normal;font-style:normal;font-size:10px">0</text>
<text x="148.29" y="-15.602" transform="scale(1, -1)"
	style="font-family:Times;font-weight:normal;font-style:normal;font-size:10px">3</text>
<text x="197.2" y="-15.602" transform="scale(1, -1)"
	style="font-family:Times;font-weight:normal;font-style:normal;font-size:10px">6</text>
<path d="M52.969,25.23L52.969,33.23" style="fill:none;stroke:#000000;stroke-width:0.5" />
<path d="M101.88,25.23L101.88,33.23" style="fill:none;stroke:#000000;stroke-width:0.5" />
<path d="M150.79,25.23L150.79,33.23" style="fill:none;stroke:#000000;stroke-width:0.5" />
<path d="M199.7,25.23L199.7,33.23" style="fill:none;stroke:#000000;stroke-width:0.5" />
<path d="M69.272,29.23L69.272,33.23" style="fill:none;stroke:#000000;stroke-width:0.5" />
<path d="M85.575,29.23L85.575,33.23" style="fill:none;stroke:#000000;stroke-width:0.5" />
<path d="M118.18,29.23L118.18,33.23" style="fill:none;stroke:#000000;stroke-width:0.5" />
<path d="M134.48,29.23L134.48,33.23" style="fill:none;stroke:#000000;stroke-width:0.5" />
<path d="M167.09,29.23L167.09,33.23" style="fill:none;stroke:#000000;stroke-width:0.5" />
<path d="M183.39,29.23L183.39,33.23" style="fill:none;stroke:#000000;stroke-width:0.5" />
<path d="M216,29.23L216,33.23" style="fill:none;stroke:#000000;stroke-width:0.5" />
<path d="M36.666,33.23L216,33.23" style="fill:none;stroke:#000000;stroke-width:0.5" />
<g transform="rotate(90)">
<text x="111.62" y="11.555" transform="scale(1, -1)"
	style="font-family:Times;font-weight:normal;font-style:normal;font-size:12px">p(x,t)</text>
</g>
<text x="15.416" y="-33.759" transform="scale(1, -1)"
	style="font-family:Times;font-weight:normal;font-style:normal;font-size:10px">0</text>
<text x="15.416" y="-120.06" transform="scale(1, -1)"
	style="font-family:Times;font-weight:normal;font-style:normal;font-size:10px">1</text>
<text x="15.416" y="-206.37" transform="scale(1, -1)"
	style="font-family:Times;font-weight:normal;font-style:normal;font-size:10px">2</text>
<path d="M22.916,38.48L30.916,38.48" style="fill:none;stroke:#000000;stroke-width:0.5" />
<path d="M22.916,124.79L30.916,124.79" style="fill:none;stroke:#000000;stroke-width:0.5" />
<path d="M22.916,211.09L30.916,211.09" style="fill:none;stroke:#000000;stroke-width:0.5" />
<path d="M26.916,55.742L30.916,55.742" style="fill:none;stroke:#000000;stroke-width:0.5" />
<path d="M26.916,73.003L30.916,73.003" style="fill:none;stroke:#000000;stroke-width:0.5" />
<path d="M26.916,90.264L30.916,90.264" style="fill:none;stroke:#000000;stroke-width:0.5" />
<path d="M26.916,107.53L30.916,107.53" style="fill:none;stroke:#000000;stroke-width:0.5" />
<path d="M26.916,142.05L30.916,142.05" style="fill:none;stroke:#000000;stroke-width:0.5" />
<path d="M26.916,159.31L30.916,159.31" style="fill:none;stroke:#000000;stroke-width:0.5" />
<path d="M26.916,176.57L30.916,176.57" style="fill:none;stroke:#000000;stroke-width:0.5" />
<path d="M26.916,193.83L30.916,193.83" style="fill:none;stroke:#000000;stroke-width:0.5" />
<path d="M30.916,38.48L30.916,211.09" style="fill:none;stroke:#000000;stroke-width:0.5" />
<path d="M36.666,38.481L37.175,38.481L37.685,38.481L38.194,38.481L38.704,38.481L39.213,38.482L39.723,38.482L40.232,38.482L40.742,38.482L41.251,38.482L41.761,38.483L42.27,38.483L42.78,38.483L43.289,38.484L43.799,38.484L44.308,38.485L44.818,38.485L45.327,38.486L45.837,38.487L46.346,38.488L46.855,38.489L47.365,38.49L47.874,38.491L48.384,38.492L48.893,38.494L49.403,38.496L49.912,38.498L50.422,38.5L50.931,38.503L51.441,38.506L51.95,38.509L52.46,38.512L52.969,38.516L53.479,38.521L53.988,38.526L54.498,38.531L55.007,38.537L55.516,38.544L56.026,38.551L56.535,38.56L57.045,38.569L57.554,38.579L58.064,38.59L58.573,38.602L59.083,38.616L59.592,38.631L60.102,38.647L60.611,38.665L61.121,38.685L61.63,38.706L62.14,38.73L62.649,38.756L63.159,38.784L63.668,38.815L64.177,38.848L64.687,38.885L65.196,38.925L65.706,38.968L66.215,39.014L66.725,39.065L67.234,39.12L67.744,39.179L68.253,39.243L68.763,39.312L69.272,39.387L69.782,39.467L70.291,39.553L70.801,39.645L71.31,39.744L71.82,39.85L72.329,39.964L72.838,40.085L73.348,40.215L73.857,40.353L74.367,40.501L74.876,40.657L75.386,40.824L75.895,41.001L76.405,41.188L76.914,41.386L77.424,41.596L77.933,41.818L78.443,42.052L78.952,42.298L79.462,42.558L79.971,42.831L80.481,43.117L80.99,43.418L81.5,43.732L82.009,44.061L82.518,44.405L83.028,44.764L83.537,45.138L84.047,45.527L84.556,45.932L85.066,46.352L85.575,46.787L86.085,47.238L86.594,47.704L87.104,48.185L87.613,48.681L88.123,49.192L88.632,49.717L89.142,50.256L89.651,50.809L90.161,51.375L90.67,51.953L91.179,52.544L91.689,53.146L92.198,53.758L92.708,54.38L93.217,55.011L93.727,55.65L94.236,56.296L94.746,56.948L95.255,57.605L95.765,58.265L96.274,58.928L96.784,59.592L97.293,60.256L97.803,60.919L98.312,61.579L98.822,62.234L99.331,62.884L99.84,63.527L100.35,64.161L100.86,64.785L101.37,65.398L101.88,65.997L102.39,66.582L102.9,67.15L103.41,67.702L103.92,68.234L104.43,68.745L104.94,69.235L105.44,69.702L105.95,70.144L106.46,70.561L106.97,70.951L107.48,71.313L107.99,71.646L108.5,71.949L109.01,72.222L109.52,72.462L110.03,72.671L110.54,72.846L111.05,72.989L111.56,73.097L112.07,73.171L112.58,73.211L113.09,73.216L113.6,73.187L114.11,73.123L114.62,73.026L115.12,72.894L115.63,72.728L116.14,72.53L116.65,72.299L117.16,72.036L117.67,71.742L118.18,71.418L118.69,71.065L119.2,70.684L119.71,70.275L120.22,69.841L120.73,69.381L121.24,68.898L121.75,68.393L122.26,67.867L122.77,67.322L123.28,66.758L123.79,66.178L124.3,65.583L124.8,64.975L125.31,64.354L125.82,63.723L126.33,63.083L126.84,62.435L127.35,61.781L127.86,61.122L128.37,60.46L128.88,59.797L129.39,59.132L129.9,58.469L130.41,57.808L130.92,57.15L131.43,56.496L131.94,55.848L132.45,55.207L132.96,54.573L133.47,53.948L133.98,53.333L134.48,52.728L134.99,52.134L135.5,51.551L136.01,50.982L136.52,50.425L137.03,49.881L137.54,49.352L138.05,48.836L138.56,48.336L139.07,47.85L139.58,47.379L140.09,46.924L140.6,46.484L141.11,46.059L141.62,45.65L142.13,45.256L142.64,44.877L143.15,44.514L143.66,44.166L144.16,43.832L144.67,43.513L145.18,43.208L145.69,42.917L146.2,42.64L146.71,42.377L147.22,42.126L147.73,41.889L148.24,41.663L148.75,41.45L149.26,41.248L149.77,41.057L150.28,40.877L150.79,40.707L151.3,40.548L151.81,40.398L152.32,40.257L152.83,40.124L153.33,40L153.84,39.884L154.35,39.776L154.86,39.675L155.37,39.58L155.88,39.492L156.39,39.411L156.9,39.334L157.41,39.264L157.92,39.198L158.43,39.138L158.94,39.082L159.45,39.03L159.96,38.982L160.47,38.938L160.98,38.897L161.49,38.859L162,38.825L162.51,38.793L163.01,38.764L163.52,38.738L164.03,38.713L164.54,38.691L165.05,38.671L165.56,38.652L166.07,38.636L166.58,38.62L167.09,38.606L167.6,38.594L168.11,38.582L168.62,38.572L169.13,38.562L169.64,38.554L170.15,38.546L170.66,38.539L171.17,38.533L171.68,38.527L172.19,38.522L172.69,38.517L173.2,38.513L173.71,38.51L174.22,38.506L174.73,38.504L175.24,38.501L175.75,38.499L176.26,38.496L176.77,38.495L177.28,38.493L177.79,38.491L178.3,38.49L178.81,38.489L179.32,38.488L179.83,38.487L180.34,38.486L180.85,38.486L181.36,38.485L181.87,38.484L182.37,38.484L182.88,38.483L183.39,38.483L183.9,38.483L184.41,38.482L184.92,38.482L185.43,38.482L185.94,38.482L186.45,38.482L186.96,38.481L187.47,38.481L187.98,38.481L188.49,38.481L189,38.481L189.51,38.481L190.02,38.481L190.53,38.481L191.04,38.481L191.55,38.481L192.05,38.481L192.56,38.481L193.07,38.481L193.58,38.481L194.09,38.481L194.6,38.481L195.11,38.481L195.62,38.481L196.13,38.481L196.64,38.481L197.15,38.481L197.66,38.481L198.17,38.481L198.68,38.48L199.19,38.48L199.7,38.48L200.21,38.48L200.72,38.48L201.23,38.48L201.73,38.48L202.24,38.48L202.75,38.48L203.26,38.48L203.77,38.48L204.28,38.48L204.79,38.48L205.3,38.48L205.81,38.48L206.32,38.48L206.83,38.48L207.34,38.48L207.85,38.48L208.36,38.48L208.87,38.48L209.38,38.48L209.89,38.48L210.4,38.48L210.91,38.48L211.41,38.48L211.92,38.48L212.43,38.48L212.94,38.48L213.45,38.48L213.96,38.48L214.47,38.48L214.98,38.48L215.49,38.48L216,38.48" style="fill:none;stroke:#FF7F0E" />
<path d="M53.039,39.146L66.584,38.936L73.908,41.165L74.496,41.562L76.486,42.401L77.435,42.518L77.735,42.643L78.134,43.084L78.62,43.134L79.391,43.201L80.573,43.223L81.068,43.763L82.167,44.069L83.44,44.161L83.959,45.761L84.665,46.485L84.983,46.496L85.746,46.959L86.238,48.079L87.118,48.352L87.157,48.505L87.574,49.504L87.845,49.662L87.971,49.858L88.018,50.67L88.263,50.745L88.726,51.787L89.91,52.174L90.151,52.427L90.273,52.506L90.386,52.538L90.474,52.605L90.639,52.815L90.787,52.819L90.822,52.875L90.979,53.517L91.439,53.562L91.795,54.018L91.953,54.541L92.166,54.89L92.381,55.099L92.563,55.397L93.427,55.641L93.578,55.646L93.647,55.654L93.718,55.667L93.753,55.802L93.941,56.106L93.953,56.323L94.093,56.428L94.43,56.532L94.824,56.695L94.828,56.744L95.113,56.757L95.522,56.931L95.528,56.993L95.633,57.112L95.986,57.15L96.259,57.193L96.34,57.28L96.362,57.403L96.408,57.415L96.793,57.594L96.874,57.602L96.938,57.715L97.122,57.752L97.159,57.88L98.322,57.982L98.556,58.002L98.638,58.061L98.705,58.15L98.942,58.29L99.11,58.298L99.276,58.428L99.717,58.711L99.81,58.803L99.893,59.02L99.964,59.482L99.969,59.609L100.35,60.038L100.53,60.227L100.7,60.326L100.72,61.271L100.95,61.517L101.27,61.824L101.44,62.01L101.55,62.153L101.55,62.299L101.63,63.288L102.68,63.549L102.7,63.565L103.06,64.235L103.22,64.489L103.32,64.568L103.34,65.938L103.75,66.728L103.92,66.788L104.1,67.045L104.15,67.319L104.26,68.361L104.26,68.376L104.3,68.607L104.6,68.72L104.75,69.131L104.83,69.617L104.87,69.76L105.05,69.768L105.1,69.984L105.11,70.042L105.13,70.242L105.26,70.486L105.46,70.596L105.58,70.702L105.65,70.773L105.78,71.877L105.82,72.132L105.89,72.177L105.9,72.194L105.91,72.269L105.95,72.352L105.99,72.784L106.01,72.888L106.07,72.941L106.4,73.055L106.48,73.055L106.56,73.061L106.7,73.265L106.73,73.268L106.75,73.322L106.82,73.331L106.86,73.614L106.99,73.655L107.03,73.79L107.11,73.798L107.12,74.136L107.22,74.192L107.34,74.286L107.39,74.292L107.41,74.677L107.45,74.707L107.47,74.728L107.57,74.738L107.83,74.76L107.89,74.793L107.98,74.895L108.29,74.98L108.55,75.166L108.58,75.167L108.71,75.217L108.83,75.27L108.92,75.349L108.93,75.363L108.95,75.457L109.1,75.484L109.17,75.487L109.17,75.496L109.18,75.525L109.2,75.533L109.3,75.55L109.39,75.549L109.43,75.549L109.46,75.546L109.48,75.543L109.53,75.536L109.66,75.526L109.78,75.498L109.79,75.461L109.85,75.402L110.07,75.394L110.24,75.388L110.25,75.361L110.32,75.348L110.34,75.325L110.63,75.186L110.86,75.107L110.97,75.055L111.08,74.998L111.1,74.884L111.15,74.825L111.26,74.789L111.3,74.672L111.39,74.645L111.8,74.539L111.85,74.361L111.86,74.297L111.9,74.237L112.05,74.218L112.06,74.168L112.14,74.148L112.18,74.032L112.18,74.031L112.19,73.557L112.32,73.336L112.5,73.32L112.59,73.139L112.85,73.093L112.85,72.938L112.88,72.924L112.96,72.581L113.08,72.577L113.09,72.455L113.19,72.424L113.25,72.271L113.26,72.183L113.36,72.008L113.4,71.949L113.49,71.81L113.7,71.728L113.72,71.524L113.92,71.506L114,71.476L114.28,71.465L114.37,71.309L114.5,71.227L114.54,70.671L114.73,70.62L114.91,70.586L115.04,70.355L115.06,70.336L115.32,70.282L115.44,70.215L115.62,70.056L115.64,69.996L115.91,69.946L116.05,69.851L116.09,69.777L116.1,69.713L116.13,69.668L116.33,69.641L116.34,69.35L116.45,69.333L116.54,69.329L116.99,69.025L117.06,68.969L117.19,68.855L117.28,68.802L117.46,68.636L117.62,68.528L117.64,68.513L117.68,68.404L117.69,68.282L117.7,68.219L117.7,68.208L117.76,68.039L117.86,67.736L117.99,67.579L118.25,67.544L118.69,67.477L118.85,67.454L118.9,67.439L118.92,67.419L118.92,67.308L118.95,66.892L119.1,66.837L119.3,66.828L119.31,66.678L119.5,66.625L119.55,66.558L119.91,66.364L119.99,66.329L120.01,66.327L120.14,66.206L120.25,66.165L120.35,66.16L120.47,66.15L120.9,66.125L120.91,66.056L121.11,65.875L121.12,65.741L121.17,65.583L121.28,65.551L121.44,65.54L121.48,65.499L121.52,65.457L121.62,65.282L121.71,65.241L122.02,65.225L122.19,65.102L122.25,65.068L122.3,64.862L122.53,64.646L122.82,64.563L123.15,64.361L123.2,64.303L123.31,64.268L123.47,64.035L123.49,63.971L123.53,63.942L123.73,63.921L123.76,63.889L123.81,63.831L123.81,63.752L123.86,63.75L123.9,63.6L124.18,63.512L124.2,63.504L124.46,63.486L124.75,63.409L124.79,63.346L124.99,63.278L125.16,63.267L125.25,63.21L125.46,63.173L125.67,63.158L126.03,63.076L126.06,63.017L126.11,62.989L126.15,62.901L126.48,62.839L126.52,62.823L126.6,62.693L127.15,62.648L127.24,62.365L127.51,62.151L127.65,62.053L127.77,62.048L127.79,61.97L127.85,61.914L127.86,61.886L127.88,61.861L127.89,61.854L128.2,61.734L128.25,61.669L128.69,61.622L128.77,61.608L128.83,61.589L128.88,61.525L129.22,61.443L129.4,61.386L129.43,61.231L129.51,60.71L129.61,60.67L129.69,60.599L129.76,60.417L129.9,60.13L129.98,60.066L130.03,59.996L130.08,59.861L130.36,59.826L130.5,59.771L130.61,59.43L130.65,59.384L130.76,59.376L130.8,59.299L131.04,59.216L131.07,58.279L131.2,58.176L131.2,57.741L131.22,57.69L131.58,57.612L131.91,57.398L132.24,57.046L132.32,56.219L132.42,55.331L133.2,55.287L133.21,55.222L133.57,55.199L133.75,55.02L134.31,54.501L134.54,53.947L134.7,53.379L134.74,52.408L134.86,52.25L134.86,52.094L135.05,51.812L135.1,51.562L135.54,51.508L135.65,51.273L135.79,51.201L136.04,50.39L136.17,50.174L136.79,50.006L137.69,48.634L138.14,48.309L139.26,47.996L139.27,47.705L140.09,47.348L140.26,46.831L140.83,46.702L141.61,46.291L142.38,46.192L142.49,45.933L142.59,45.876L142.63,45.821L142.85,45.731L142.99,45.587L142.99,45.514L143.33,45.202L143.44,44.821L144.4,44.194L146.8,42.874L147.53,42.496L147.75,42.24L149.76,41.416L150.87,41.063L152.48,40.87L155.27,40.408L155.72,40.386L158.54,39.695L164.15,39.064" style="fill:none;stroke:#1F77B4" />
<path d="M36.666,210.11L56.666,210.11" style="fill:none;stroke:#FF7F0E" />
<text x="59.666" y="-204.45" transform="scale(1, -1)"
	style="font-family:Times;font-weight:normal;font-style:normal;font-size:12px">analytical</text>
<path d="M36.666,198.33L56.666,198.33" style="fill:none;stroke:#1F77B4" />
<text x="59.666" y="-192.67" transform="scale(1, -1)"
	style="font-family:Times;font-weight:normal;font-style:normal;font-size:12px">proximal</text>
</g>
</svg>
