<?xml version="1.0"?>
<!-- Generated by SVGo and Plotinum VG -->
<svg width="216pt" height="216pt" viewBox="0 0 216 216"
	xmlns="http://www.w3.org/2000/svg"
	xmlns:xlink="http://www.w3.org/1999/xlink">
<g transform="scale(1, -1) translate(0, -216)">
<path d="M0,0L216,0L216,216L0,216Z" style="fill:#FFFFFF" />
<text x="123.33" y="-3.8613" transform="scale(1, -1)"
	style="font-family:Times;font-weight:normal;font-style:normal;font-size:12px">x</text>
<text x="48.804" y="-15.602" transform="scale(1, -1)"
	style="font-family:Times;font-weight:normal;font-style:normal;font-size:10px">-3</text>
<text x="99.378" y="-15.602" transform="scale(1, -1)"
	style="font-family:Times;font-weight:normal;font-style:normal;font-size:10px">0</text>
<text x="148.29" y="-15.602" transform="scale(1, -1)"
	style="font-family:Times;font-weight:normal;font-style:normal;font-size:10px">3</text>
<text x="197.2" y="-15.602" transform="scale(1, -1)"
	style="font-family:Times;font-weight:normal;font-style:normal;font-size:10px">6</text>
<path d="M52.969,25.23L52.969,33.23" style="fill:none;stroke:#000000;stroke-width:0.5" />
<path d="M101.88,25.23L101.88,33.23" style="fill:none;stroke:#000000;stroke-width:0.5" />
<path d="M150.79,25.23L150.79,33.23" style="fill:none;stroke:#000000;stroke-width:0.5" />
<path d="M199.7,25.23L199.7,33.23" style="fill:none;stroke:#000000;stroke-width:0.5" />
<path d="M69.272,29.23L69.272,33.23" style="fill:none;stroke:#000000;stroke-width:0.5" />
<path d="M85.575,29.23L85.575,33.23" style="fill:none;stroke:#000000;stroke-width:0.5" />
<path d="M118.18,29.23L118.18,33.23" style="fill:none;stroke:#000000;stroke-width:0.5" />
<path d="M134.48,29.23L134.48,33.23" style="fill:none;stroke:#000000;stroke-width:0.5" />
<path d="M167.09,29.23L167.09,33.23" style="fill:none;stroke:#000000;stroke-width:0.5" />
<path d="M183.39,29.23L183.39,33.23" style="fill:none;stroke:#000000;stroke-width:0.5" />
<path d="M216,29.23L216,33.23" style="fill:none;stroke:#000000;stroke-width:0.5" />
<path d="M36.666,33.23L216,33.23" style="fill:none;stroke:#000000;stroke-width:0.5" />
<g transform="rotate(90)">
<text x="111.62" y="11.555" transform="scale(1, -1)"
	style="font-family:Times;font-weight:normal;font-style:normal;font-size:12px">p(x,t)</text>
</g>
<text x="15.416" y="-33.759" transform="scale(1, -1)"
	style="font-family:Times;font-weight:normal;font-style:normal;font-size:10px">0</text>
<text x="15.416" y="-120.06" transform="scale(1, -1)"
	style="font-family:Times;font-weight:normal;font-style:normal;font-size:10px">1</text>
<text x="15.416" y="-206.37" transform="scale(1, -1)"
	style="font-family:Times;font-weight:normal;font-style:normal;font-size:10px">2</text>
<path d="M22.916,38.48L30.916,38.48" style="fill:none;stroke:#000000;stroke-width:0.5" />
<path d="M22.916,124.79L30.916,124.79" style="fill:none;stroke:#000000;stroke-width:0.5" />
<path d="M22.916,211.09L30.916,211.09" style="fill:none;stroke:#000000;stroke-width:0.5" />
<path d="M26.916,55.742L30.916,55.742" style="fill:none;stroke:#000000;stroke-width:0.5" />
<path d="M26.916,73.003L30.916,73.003" style="fill:none;stroke:#000000;stroke-width:0.5" />
<path d="M26.916,90.264L30.916,90.264" style="fill:none;stroke:#000000;stroke-width:0.5" />
<path d="M26.916,107.53L30.916,107.53" style="fill:none;stroke:#000000;stroke-width:0.5" />
<path d="M26.916,142.05L30.916,142.05" style="fill:none;stroke:#000000;stroke-width:0.5" />
<path d="M26.916,159.31L30.916,159.31" style="fill:none;stroke:#000000;stroke-width:0.5" />
<path d="M26.916,176.57L30.916,176.57" style="fill:none;stroke:#000000;stroke-width:0.5" />
<path d="M26.916,193.83L30.916,193.83" style="fill:none;stroke:#000000;stroke-width:0.5" />
<path d="M30.916,38.48L30.916,211.09" style="fill:none;stroke:#000000;stroke-width:0.5" />
<path d="M36.666,38.48L37.175,38.48L37.685,38.48L38.194,38.48L38.704,38.48L39.213,38.48L39.723,38.48L40.232,38.48L40.742,38.48L41.251,38.48L41.761,38.48L42.27,38.48L42.78,38.48L43.289,38.48L43.799,38.48L44.308,38.48L44.818,38.48L45.327,38.48L45.837,38.48L46.346,38.48L46.855,38.48L47.365,38.48L47.874,38.48L48.384,38.48L48.893,38.48L49.403,38.48L49.912,38.48L50.422,38.48L50.931,38.48L51.441,38.48L51.95,38.48L52.46,38.48L52.969,38.48L53.479,38.48L53.988,38.48L54.498,38.48L55.007,38.48L55.516,38.48L56.026,38.48L56.535,38.48L57.045,38.48L57.554,38.48L58.064,38.48L58.573,38.48L59.083,38.48L59.592,38.48L60.102,38.48L60.611,38.48L61.121,38.48L61.63,38.48L62.14,38.48L62.649,38.48L63.159,38.48L63.668,38.48L64.177,38.48L64.687,38.48L65.196,38.48L65.706,38.48L66.215,38.48L66.725,38.48L67.234,38.48L67.744,38.48L68.253,38.48L68.763,38.48L69.272,38.48L69.782,38.48L70.291,38.48L70.801,38.48L71.31,38.48L71.82,38.48L72.329,38.48L72.838,38.48L73.348,38.48L73.857,38.48L74.367,38.48L74.876,38.48L75.386,38.48L75.895,38.48L76.405,38.48L76.914,38.48L77.424,38.48L77.933,38.48L78.443,38.48L78.952,38.48L79.462,38.48L79.971,38.48L80.481,38.48L80.99,38.48L81.5,38.48L82.009,38.48L82.518,38.48L83.028,38.48L83.537,38.48L84.047,38.48L84.556,38.48L85.066,38.48L85.575,38.48L86.085,38.48L86.594,38.48L87.104,38.48L87.613,38.48L88.123,38.48L88.632,38.48L89.142,38.48L89.651,38.48L90.161,38.48L90.67,38.48L91.179,38.48L91.689,38.48L92.198,38.48L92.708,38.48L93.217,38.48L93.727,38.48L94.236,38.48L94.746,38.48L95.255,38.48L95.765,38.48L96.274,38.48L96.784,38.48L97.293,38.48L97.803,38.48L98.312,38.48L98.822,38.48L99.331,38.48L99.84,38.48L100.35,38.48L100.86,38.48L101.37,38.48L101.88,38.48L102.39,38.48L102.9,38.48L103.41,38.48L103.92,38.48L104.43,38.48L104.94,38.48L105.44,38.48L105.95,38.48L106.46,38.48L106.97,38.48L107.48,38.48L107.99,38.48L108.5,38.48L109.01,38.48L109.52,38.48L110.03,38.48L110.54,38.48L111.05,38.48L111.56,38.48L112.07,38.48L112.58,38.48L113.09,38.48L113.6,38.48L114.11,38.48L114.62,38.48L115.12,38.48L115.63,38.48L116.14,38.48L116.65,38.48L117.16,38.48L117.67,38.48L118.18,38.48L118.69,38.48L119.2,38.48L119.71,38.48L120.22,38.48L120.73,38.48L121.24,38.48L121.75,38.48L122.26,38.48L122.77,38.48L123.28,38.48L123.79,38.48L124.3,38.48L124.8,38.48L125.31,38.48L125.82,38.48L126.33,38.48L126.84,38.48L127.35,38.48L127.86,38.48L128.37,38.48L128.88,38.48L129.39,38.48L129.9,38.48L130.41,38.48L130.92,38.48L131.43,38.48L131.94,38.48L132.45,38.48L132.96,38.48L133.47,38.48L133.98,38.48L134.48,38.48L134.99,38.48L135.5,38.48L136.01,38.48L136.52,38.48L137.03,38.48L137.54,38.48L138.05,38.48L138.56,38.48L139.07,38.48L139.58,38.48L140.09,38.48L140.6,38.48L141.11,38.48L141.62,38.48L142.13,38.48L142.64,38.48L143.15,38.48L143.66,38.48L144.16,38.48L144.67,38.48L145.18,38.48L145.69,38.48L146.2,38.48L146.71,38.48L147.22,38.48L147.73,38.48L148.24,38.48L148.75,38.48L149.26,38.48L149.77,38.48L150.28,38.48L150.79,38.48L151.3,38.48L151.81,38.48L152.32,38.48L152.83,38.48L153.33,38.48L153.84,38.48L154.35,38.48L154.86,38.48L155.37,38.48L155.88,38.48L156.39,38.48L156.9,38.48L157.41,38.48L157.92,38.48L158.43,38.48L158.94,38.48L159.45,38.48L159.96,38.48L160.47,38.48L160.98,38.48L161.49,38.48L162,38.48L162.51,38.48L163.01,38.48L163.52,38.48L164.03,38.48L164.54,38.48L165.05,38.48L165.56,38.481L166.07,38.481L166.58,38.481L167.09,38.481L167.6,38.482L168.11,38.483L168.62,38.486L169.13,38.492L169.64,38.504L170.15,38.525L170.66,38.564L171.17,38.633L171.68,38.751L172.19,38.948L172.69,39.271L173.2,39.785L173.71,40.58L174.22,41.778L174.73,43.536L175.24,46.044L175.75,49.524L176.26,54.214L176.77,60.357L177.28,68.164L177.79,77.785L178.3,89.27L178.81,102.53L179.32,117.3L179.83,133.14L180.34,149.42L180.85,165.36L181.36,180.09L181.87,192.72L182.37,202.43L182.88,208.55L183.39,210.64L183.9,208.55L184.41,202.43L184.92,192.72L185.43,180.09L185.94,165.36L186.45,149.42L186.96,133.14L187.47,117.3L187.98,102.53L188.49,89.27L189,77.785L189.51,68.164L190.02,60.357L190.53,54.214L191.04,49.524L191.55,46.044L192.05,43.536L192.56,41.778L193.07,40.58L193.58,39.785L194.09,39.271L194.6,38.948L195.11,38.751L195.62,38.633L196.13,38.564L196.64,38.525L197.15,38.504L197.66,38.492L198.17,38.486L198.68,38.483L199.19,38.482L199.7,38.481L200.21,38.481L200.72,38.481L201.23,38.481L201.73,38.48L202.24,38.48L202.75,38.48L203.26,38.48L203.77,38.48L204.28,38.48L204.79,38.48L205.3,38.48L205.81,38.48L206.32,38.48L206.83,38.48L207.34,38.48L207.85,38.48L208.36,38.48L208.87,38.48L209.38,38.48L209.89,38.48L210.4,38.48L210.91,38.48L211.41,38.48L211.92,38.48L212.43,38.48L212.94,38.48L213.45,38.48L213.96,38.48L214.47,38.48L214.98,38.48L215.49,38.48L216,38.48" style="fill:none;stroke:#FF7F0E" />
<path d="M173.46,40.142L174.78,43.742L175.3,46.373L175.46,47.395L175.49,47.619L175.79,49.821L176.26,54.208L176.52,57.165L176.62,58.376L176.69,59.247L177.21,66.976L177.42,70.627L177.46,71.263L177.55,73.023L177.68,75.481L177.79,77.877L177.8,77.913L177.98,81.774L178.07,83.853L178.1,84.638L178.16,85.869L178.17,86.142L178.21,87.091L178.22,87.45L178.24,87.737L178.24,87.849L178.34,90.354L178.43,92.415L178.43,92.622L178.46,93.246L178.5,94.181L178.61,97.22L178.63,97.792L178.74,100.56L178.75,100.81L178.98,107.22L178.99,107.68L179,107.81L179,108L179.04,109.03L179.14,112.11L179.25,115.12L179.25,115.29L179.39,119.49L179.42,120.46L179.63,127.04L179.66,127.9L179.68,128.59L179.7,129.09L179.71,129.29L179.76,131L179.77,131.47L179.86,134.27L179.87,134.39L179.87,134.47L179.88,134.73L179.92,136.1L179.92,136.23L180.05,140.36L180.09,141.51L180.17,144.01L180.17,144.03L180.17,144.08L180.2,144.91L180.24,146.29L180.25,146.6L180.25,146.75L180.31,148.62L180.32,148.91L180.38,150.78L180.4,151.42L180.45,152.9L180.46,153.43L180.47,153.59L180.5,154.45L180.52,155.15L180.56,156.38L180.57,156.78L180.63,158.59L180.63,158.75L180.67,159.82L180.71,161.01L180.75,162.38L180.79,163.59L180.79,163.78L180.83,164.84L180.84,165.24L180.88,166.47L180.91,167.32L180.92,167.55L180.93,167.83L180.96,168.88L180.97,169.09L181,170.05L181.05,171.36L181.06,171.65L181.07,171.96L181.1,172.9L181.1,172.94L181.11,173.26L181.11,173.29L181.17,174.81L181.17,174.87L181.23,176.49L181.26,177.4L181.3,178.59L181.35,180.06L181.38,180.66L181.38,180.83L181.39,181.04L181.4,181.15L181.43,181.95L181.43,182.02L181.43,182.17L181.45,182.69L181.46,182.92L181.48,183.31L181.5,183.89L181.54,184.83L181.55,185.22L181.57,185.77L181.62,186.86L181.65,187.79L181.67,188.06L181.68,188.46L181.7,188.87L181.71,189.17L181.77,190.58L181.77,190.58L181.79,191.04L181.8,191.17L181.8,191.2L181.81,191.54L181.83,192L181.84,192.07L181.84,192.16L181.89,193.17L181.93,194.18L182.03,196.15L182.04,196.34L182.09,197.38L182.1,197.62L182.11,197.85L182.16,198.7L182.16,198.82L182.18,199.15L182.22,199.92L182.23,200.02L182.29,201.11L182.3,201.14L182.3,201.23L182.32,201.53L182.36,202.27L182.37,202.34L182.37,202.37L182.5,204.26L182.5,204.3L182.54,204.81L182.56,205.09L182.57,205.24L182.59,205.46L182.66,206.3L182.67,206.45L182.67,206.46L182.69,206.71L182.7,206.8L182.72,206.96L182.74,207.24L182.76,207.37L182.76,207.41L182.79,207.69L182.81,207.94L182.85,208.27L182.86,208.33L182.87,208.44L182.88,208.54L182.89,208.59L182.91,208.71L182.93,208.89L182.93,208.9L182.94,208.96L182.94,209.01L182.99,209.29L183.09,209.87L183.09,209.87L183.09,209.87L183.09,209.9L183.1,209.93L183.1,209.95L183.11,209.98L183.11,210L183.12,210.01L183.13,210.09L183.15,210.15L183.22,210.38L183.23,210.43L183.28,210.53L183.28,210.53L183.28,210.53L183.29,210.55L183.32,210.59L183.32,210.6L183.33,210.61L183.34,210.61L183.37,210.63L183.38,210.63L183.39,210.64L183.4,210.64L183.4,210.64L183.42,210.63L183.46,210.6L183.47,210.59L183.49,210.56L183.5,210.55L183.51,210.53L183.52,210.51L183.55,210.44L183.56,210.42L183.57,210.39L183.57,210.37L183.58,210.34L183.65,210.09L183.65,210.09L183.67,210.03L183.67,210.02L183.7,209.87L183.71,209.83L183.73,209.72L183.73,209.72L183.75,209.58L183.77,209.51L183.79,209.39L183.85,208.94L183.86,208.88L183.88,208.76L183.91,208.48L183.95,208.16L183.99,207.75L184.03,207.43L184.04,207.34L184.05,207.17L184.08,206.84L184.1,206.69L184.11,206.49L184.13,206.25L184.19,205.6L184.19,205.58L184.19,205.54L184.19,205.54L184.2,205.46L184.21,205.32L184.22,205.2L184.23,205.09L184.29,204.2L184.29,204.19L184.31,203.92L184.32,203.88L184.32,203.76L184.34,203.59L184.36,203.27L184.42,202.31L184.48,201.34L184.51,200.91L184.54,200.36L184.56,200.04L184.58,199.56L184.59,199.4L184.61,198.99L184.65,198.27L184.66,198.2L184.68,197.8L184.72,196.95L184.73,196.72L184.74,196.64L184.76,196.22L184.76,196.21L184.78,195.68L184.81,195.17L184.87,193.86L184.91,193.1L184.91,192.92L185.09,188.88L185.13,187.9L185.16,187.15L185.19,186.46L185.19,186.42L185.2,186.03L185.21,185.91L185.23,185.31L185.25,184.96L185.26,184.7L185.27,184.47L185.27,184.36L185.29,183.85L185.29,183.82L185.3,183.49L185.31,183.25L185.35,182.33L185.36,181.92L185.37,181.73L185.38,181.51L185.43,180.01L185.44,179.98L185.46,179.33L185.48,178.78L185.49,178.55L185.49,178.53L185.55,176.96L185.59,175.64L185.6,175.31L185.66,173.71L185.66,173.71L185.68,173.21L185.68,173.04L185.72,172L185.8,169.71L185.83,168.7L185.95,165.16L185.95,165.13L185.97,164.46L185.97,164.41L185.98,164.09L185.99,163.88L186.02,163.08L186.03,162.79L186.05,162.08L186.06,161.84L186.09,160.74L186.1,160.6L186.11,160.18L186.11,160.09L186.17,158.18L186.22,156.75L186.22,156.63L186.25,155.87L186.31,154.02L186.31,153.94L186.4,150.89L186.54,146.54L186.54,146.46L186.55,146.39L186.55,146.32L186.58,145.2L186.61,144.35L186.62,143.95L186.64,143.26L186.7,141.51L186.75,139.94L186.76,139.52L186.8,138.16L186.82,137.65L186.87,135.9L186.97,132.96L186.98,132.38L187.12,128.19L187.14,127.5L187.16,126.88L187.23,124.8L187.28,123.21L187.32,121.81L187.36,120.59L187.4,119.47L187.47,117.38L187.56,114.54L187.56,114.44L187.61,113.13L187.71,110.21L187.71,110.08L187.79,107.75L187.82,107.11L187.84,106.3L187.89,104.97L188.02,101.41L188.02,101.38L188.02,101.35L188.06,100.43L188.12,98.692L188.18,97.128L188.33,93.22L188.46,89.923L188.47,89.806L188.73,83.484L188.76,82.85L188.8,81.945L188.91,79.665L189.13,75.176L189.22,73.298L189.24,72.977L189.49,68.512L189.53,67.767L189.87,62.474L190.38,55.847L190.44,55.166L190.49,54.643L190.58,53.677L191.04,49.496L191.4,46.898L191.7,45.21L192.74,41.302L193.39,40.048" style="fill:none;stroke:#1F77B4" />
<path d="M36.666,210.11L56.666,210.11" style="fill:none;stroke:#FF7F0E" />
<text x="59.666" y="-204.45" transform="scale(1, -1)"
	style="font-family:Times;font-weight:normal;font-style:normal;font-size:12px">analytical</text>
<path d="M36.666,198.33L56.666,198.33" style="fill:none;stroke:#1F77B4" />
<text x="59.666" y="-192.67" transform="scale(1, -1)"
	style="font-family:Times;font-weight:normal;font-style:normal;font-size:12px">proximal</text>
</g>
</svg>
