<?xml version="1.0"?>
<!-- Generated by SVGo and Plotinum VG -->
<svg width="216pt" height="216pt" viewBox="0 0 216 216"
	xmlns="http://www.w3.org/2000/svg"
	xmlns:xlink="http://www.w3.org/1999/xlink">
<g transform="scale(1, -1) translate(0, -216)">
<path d="M0,0L216,0L216,216L0,216Z" style="fill:#FFFFFF" />
<text x="123.33" y="-3.8613" transform="scale(1, -1)"
	style="font-family:Times;font-weight:normal;font-style:normal;font-size:12px">x</text>
<text x="48.804" y="-15.602" transform="scale(1, -1)"
	style="font-family:Times;font-weight:normal;font-style:normal;font-size:10px">-3</text>
<text x="99.378" y="-15.602" transform="scale(1, -1)"
	style="font-family:Times;font-weight:normal;font-style:normal;font-size:10px">0</text>
<text x="148.29" y="-15.602" transform="scale(1, -1)"
	style="font-family:Times;font-weight:normal;font-style:normal;font-size:10px">3</text>
<text x="197.2" y="-15.602" transform="scale(1, -1)"
	style="font-family:Times;font-weight:normal;font-style:normal;font-size:10px">6</text>
<path d="M52.969,25.23L52.969,33.23" style="fill:none;stroke:#000000;stroke-width:0.5" />
<path d="M101.88,25.23L101.88,33.23" style="fill:none;stroke:#000000;stroke-width:0.5" />
<path d="M150.79,25.23L150.79,33.23" style="fill:none;stroke:#000000;stroke-width:0.5" />
<path d="M199.7,25.23L199.7,33.23" style="fill:none;stroke:#000000;stroke-width:0.5" />
<path d="M69.272,29.23L69.272,33.23" style="fill:none;stroke:#000000;stroke-width:0.5" />
<path d="M85.575,29.23L85.575,33.23" style="fill:none;stroke:#000000;stroke-width:0.5" />
<path d="M118.18,29.23L118.18,33.23" style="fill:none;stroke:#000000;stroke-width:0.5" />
<path d="M134.48,29.23L134.48,33.23" style="fill:none;stroke:#000000;stroke-width:0.5" />
<path d="M167.09,29.23L167.09,33.23" style="fill:none;stroke:#000000;stroke-width:0.5" />
<path d="M183.39,29.23L183.39,33.23" style="fill:none;stroke:#000000;stroke-width:0.5" />
<path d="M216,29.23L216,33.23" style="fill:none;stroke:#000000;stroke-width:0.5" />
<path d="M36.666,33.23L216,33.23" style="fill:none;stroke:#000000;stroke-width:0.5" />
<g transform="rotate(90)">
<text x="111.62" y="11.555" transform="scale(1, -1)"
	style="font-family:Times;font-weight:normal;font-style:normal;font-size:12px">p(x,t)</text>
</g>
<text x="15.416" y="-33.759" transform="scale(1, -1)"
	style="font-family:Times;font-weight:normal;font-style:normal;font-size:10px">0</text>
<text x="15.416" y="-120.06" transform="scale(1, -1)"
	style="font-family:Times;font-weight:normal;font-style:normal;font-size:10px">1</text>
<text x="15.416" y="-206.37" transform="scale(1, -1)"
	style="font-family:Times;font-weight:normal;font-style:normal;font-size:10px">2</text>
<path d="M22.916,38.48L30.916,38.48" style="fill:none;stroke:#000000;stroke-width:0.5" />
<path d="M22.916,124.79L30.916,124.79" style="fill:none;stroke:#000000;stroke-width:0.5" />
<path d="M22.916,211.09L30.916,211.09" style="fill:none;stroke:#000000;stroke-width:0.5" />
<path d="M26.916,55.742L30.916,55.742" style="fill:none;stroke:#000000;stroke-width:0.5" />
<path d="M26.916,73.003L30.916,73.003" style="fill:none;stroke:#000000;stroke-width:0.5" />
<path d="M26.916,90.264L30.916,90.264" style="fill:none;stroke:#000000;stroke-width:0.5" />
<path d="M26.916,107.53L30.916,107.53" style="fill:none;stroke:#000000;stroke-width:0.5" />
<path d="M26.916,142.05L30.916,142.05" style="fill:none;stroke:#000000;stroke-width:0.5" />
<path d="M26.916,159.31L30.916,159.31" style="fill:none;stroke:#000000;stroke-width:0.5" />
<path d="M26.916,176.57L30.916,176.57" style="fill:none;stroke:#000000;stroke-width:0.5" />
<path d="M26.916,193.83L30.916,193.83" style="fill:none;stroke:#000000;stroke-width:0.5" />
<path d="M30.916,38.48L30.916,211.09" style="fill:none;stroke:#000000;stroke-width:0.5" />
<path d="M36.666,38.48L37.175,38.48L37.685,38.48L38.194,38.48L38.704,38.48L39.213,38.48L39.723,38.48L40.232,38.48L40.742,38.48L41.251,38.48L41.761,38.48L42.27,38.48L42.78,38.48L43.289,38.48L43.799,38.48L44.308,38.48L44.818,38.48L45.327,38.48L45.837,38.48L46.346,38.48L46.855,38.48L47.365,38.48L47.874,38.48L48.384,38.48L48.893,38.48L49.403,38.48L49.912,38.48L50.422,38.48L50.931,38.48L51.441,38.48L51.95,38.48L52.46,38.48L52.969,38.48L53.479,38.48L53.988,38.48L54.498,38.48L55.007,38.48L55.516,38.48L56.026,38.48L56.535,38.48L57.045,38.48L57.554,38.48L58.064,38.48L58.573,38.48L59.083,38.48L59.592,38.48L60.102,38.48L60.611,38.48L61.121,38.48L61.63,38.48L62.14,38.48L62.649,38.48L63.159,38.48L63.668,38.48L64.177,38.48L64.687,38.48L65.196,38.48L65.706,38.48L66.215,38.48L66.725,38.48L67.234,38.48L67.744,38.48L68.253,38.48L68.763,38.48L69.272,38.48L69.782,38.48L70.291,38.48L70.801,38.48L71.31,38.48L71.82,38.48L72.329,38.48L72.838,38.48L73.348,38.48L73.857,38.48L74.367,38.48L74.876,38.48L75.386,38.48L75.895,38.48L76.405,38.48L76.914,38.48L77.424,38.48L77.933,38.48L78.443,38.48L78.952,38.48L79.462,38.48L79.971,38.48L80.481,38.48L80.99,38.48L81.5,38.48L82.009,38.481L82.518,38.481L83.028,38.481L83.537,38.481L84.047,38.481L84.556,38.481L85.066,38.481L85.575,38.481L86.085,38.481L86.594,38.481L87.104,38.481L87.613,38.481L88.123,38.481L88.632,38.481L89.142,38.481L89.651,38.481L90.161,38.481L90.67,38.481L91.179,38.482L91.689,38.482L92.198,38.482L92.708,38.482L93.217,38.483L93.727,38.483L94.236,38.484L94.746,38.484L95.255,38.485L95.765,38.486L96.274,38.487L96.784,38.488L97.293,38.489L97.803,38.491L98.312,38.493L98.822,38.495L99.331,38.497L99.84,38.5L100.35,38.503L100.86,38.506L101.37,38.511L101.88,38.515L102.39,38.521L102.9,38.527L103.41,38.534L103.92,38.543L104.43,38.552L104.94,38.563L105.44,38.575L105.95,38.588L106.46,38.604L106.97,38.621L107.48,38.641L107.99,38.663L108.5,38.687L109.01,38.715L109.52,38.746L110.03,38.781L110.54,38.82L111.05,38.863L111.56,38.912L112.07,38.965L112.58,39.025L113.09,39.09L113.6,39.163L114.11,39.243L114.62,39.331L115.12,39.429L115.63,39.535L116.14,39.652L116.65,39.78L117.16,39.919L117.67,40.071L118.18,40.236L118.69,40.416L119.2,40.611L119.71,40.822L120.22,41.05L120.73,41.296L121.24,41.561L121.75,41.846L122.26,42.151L122.77,42.478L123.28,42.828L123.79,43.201L124.3,43.598L124.8,44.021L125.31,44.469L125.82,44.944L126.33,45.446L126.84,45.976L127.35,46.534L127.86,47.12L128.37,47.735L128.88,48.379L129.39,49.051L129.9,49.753L130.41,50.482L130.92,51.24L131.43,52.025L131.94,52.837L132.45,53.674L132.96,54.536L133.47,55.421L133.98,56.328L134.48,57.255L134.99,58.2L135.5,59.162L136.01,60.138L136.52,61.126L137.03,62.124L137.54,63.128L138.05,64.135L138.56,65.144L139.07,66.151L139.58,67.152L140.09,68.145L140.6,69.125L141.11,70.091L141.62,71.038L142.13,71.962L142.64,72.861L143.15,73.73L143.66,74.567L144.16,75.369L144.67,76.131L145.18,76.85L145.69,77.525L146.2,78.152L146.71,78.728L147.22,79.25L147.73,79.717L148.24,80.127L148.75,80.477L149.26,80.766L149.77,80.993L150.28,81.156L150.79,81.256L151.3,81.291L151.81,81.262L152.32,81.168L152.83,81.01L153.33,80.789L153.84,80.505L154.35,80.161L154.86,79.756L155.37,79.294L155.88,78.777L156.39,78.206L156.9,77.583L157.41,76.913L157.92,76.197L158.43,75.439L158.94,74.641L159.45,73.807L159.96,72.94L160.47,72.044L160.98,71.121L161.49,70.177L162,69.213L162.51,68.233L163.01,67.242L163.52,66.241L164.03,65.235L164.54,64.226L165.05,63.218L165.56,62.213L166.07,61.216L166.58,60.227L167.09,59.249L167.6,58.286L168.11,57.339L168.62,56.41L169.13,55.501L169.64,54.614L170.15,53.75L170.66,52.911L171.17,52.097L171.68,51.309L172.19,50.549L172.69,49.817L173.2,49.113L173.71,48.438L174.22,47.792L174.73,47.174L175.24,46.585L175.75,46.025L176.26,45.493L176.77,44.988L177.28,44.511L177.79,44.06L178.3,43.635L178.81,43.236L179.32,42.86L179.83,42.509L180.34,42.179L180.85,41.872L181.36,41.586L181.87,41.319L182.37,41.071L182.88,40.842L183.39,40.629L183.9,40.433L184.41,40.252L184.92,40.085L185.43,39.932L185.94,39.792L186.45,39.663L186.96,39.545L187.47,39.438L187.98,39.34L188.49,39.251L189,39.17L189.51,39.097L190.02,39.03L190.53,38.97L191.04,38.916L191.55,38.868L192.05,38.824L192.56,38.785L193.07,38.749L193.58,38.718L194.09,38.69L194.6,38.665L195.11,38.642L195.62,38.623L196.13,38.605L196.64,38.589L197.15,38.576L197.66,38.564L198.17,38.553L198.68,38.543L199.19,38.535L199.7,38.528L200.21,38.521L200.72,38.516L201.23,38.511L201.73,38.507L202.24,38.503L202.75,38.5L203.26,38.497L203.77,38.495L204.28,38.493L204.79,38.491L205.3,38.489L205.81,38.488L206.32,38.487L206.83,38.486L207.34,38.485L207.85,38.484L208.36,38.484L208.87,38.483L209.38,38.483L209.89,38.482L210.4,38.482L210.91,38.482L211.41,38.482L211.92,38.481L212.43,38.481L212.94,38.481L213.45,38.481L213.96,38.481L214.47,38.481L214.98,38.481L215.49,38.481L216,38.481" style="fill:none;stroke:#FF7F0E" />
<path d="M116.65,41.491L118.12,43.416L118.81,43.474L119.22,43.845L119.84,44.268L122.8,46.55L124.09,46.57L124.4,47.486L124.53,48.691L124.63,49.13L124.92,49.396L124.95,50.121L125.93,50.64L126.78,50.766L127.42,52.517L127.47,52.668L127.6,53.03L127.93,53.511L128.34,53.782L128.59,55.132L129.13,55.124L129.38,55.671L129.92,55.655L129.95,56.022L129.98,56.191L130.38,56.222L130.4,56.259L130.7,56.35L130.7,56.437L130.97,56.886L131.37,56.871L131.65,57.3L131.66,57.378L131.75,57.443L132.09,57.5L132.24,57.576L132.63,57.735L132.81,57.811L133.05,57.914L133.79,58.026L134.05,58.523L134.15,58.565L134.16,58.618L134.21,58.834L134.36,59.007L134.43,59.045L134.64,59.203L134.8,59.247L134.88,59.422L134.93,59.779L135.84,60.323L135.97,60.326L136.01,60.72L136.58,61.677L136.75,62.165L137.01,62.247L137.05,62.883L137.72,62.85L137.74,62.958L137.8,63.249L138.02,63.483L138.32,63.533L138.48,63.549L138.63,63.638L138.67,64.276L139.23,64.319L139.34,64.46L139.4,65.308L139.55,65.554L139.76,65.868L139.76,66.518L139.93,66.951L139.96,66.964L139.99,67.509L140.12,67.806L140.19,68.337L140.28,68.549L140.79,69.152L141,69.355L141.02,69.595L141.02,69.596L141.06,69.642L141.17,70.276L141.57,70.519L141.67,70.734L141.78,70.953L141.96,71.494L142.15,71.505L142.16,71.586L142.19,72.257L142.19,72.452L142.33,72.484L142.37,72.499L142.5,72.793L142.71,73.504L142.94,73.801L143.09,74.56L143.17,74.641L143.19,74.976L143.34,74.97L143.38,75.064L143.41,75.126L143.73,75.154L143.73,75.388L143.77,75.487L143.86,75.593L143.95,75.731L143.98,75.87L144.03,75.934L144.03,76.018L144.2,76.308L144.49,76.426L144.59,76.681L144.6,76.738L144.6,76.75L144.6,76.811L144.76,76.82L144.96,77.097L145.02,77.277L145.1,77.403L145.16,77.661L145.2,77.722L145.2,77.776L145.25,77.887L145.26,77.946L145.62,77.913L145.68,78.084L145.86,78.122L145.93,78.166L145.99,78.348L146.17,78.357L146.22,78.45L146.23,78.536L146.31,78.76L146.34,78.783L146.39,78.837L146.39,78.936L146.41,78.999L146.57,79.05L146.6,79.091L146.67,79.177L146.69,79.244L146.73,79.301L147.01,79.334L147.03,79.383L147.09,79.421L147.31,79.499L147.33,79.574L147.44,79.596L147.49,79.625L147.63,79.704L147.65,79.772L147.74,79.777L148.02,79.874L148.09,79.899L148.12,79.903L148.25,79.94L148.83,79.876L148.83,79.929L148.85,79.929L148.89,79.924L149.1,79.903L149.16,79.911L149.23,79.912L149.28,79.922L149.34,79.919L149.35,79.922L149.35,79.925L149.45,79.91L149.96,79.827L150.04,79.809L150.05,79.798L150.06,79.782L150.16,79.751L150.18,79.746L150.26,79.718L150.27,79.702L150.28,79.697L150.3,79.684L150.39,79.639L150.4,79.614L150.45,79.579L150.47,79.573L150.49,79.476L150.53,79.445L150.61,79.415L150.65,79.409L150.83,79.362L151.18,79.292L151.21,79.192L151.24,79.183L151.27,79.154L151.31,79.029L151.32,79.014L151.46,78.957L151.55,78.883L151.59,78.849L151.65,78.674L151.68,78.645L151.75,78.482L151.79,78.454L151.81,78.366L151.88,78.254L151.88,78.233L151.98,78.188L152.02,78.046L152.14,77.989L152.14,77.875L152.23,77.812L152.35,77.793L152.38,77.6L152.48,77.572L152.49,77.517L152.62,77.35L152.67,77.329L152.73,77.131L152.83,77.108L152.86,77.069L152.87,76.876L152.98,76.844L153.03,76.792L153.19,76.674L153.22,76.653L153.38,76.57L153.42,76.416L153.5,76.057L153.55,75.748L153.8,75.661L153.84,75.622L154.07,75.419L154.07,75.164L154.29,74.91L154.44,74.85L154.84,74.67L155.06,74.412L155.18,74.377L155.44,73.487L155.51,73.414L155.53,73.256L155.59,73.172L155.65,73.136L155.67,72.995L155.75,72.909L155.79,72.763L155.81,72.751L155.97,72.638L156.41,72.466L156.73,72.377L156.8,72.305L156.84,72.147L156.96,72.087L157,72.05L157.02,71.885L157.1,71.669L157.18,71.384L157.2,71.314L157.22,71.239L157.22,71.16L157.23,71.038L157.37,70.726L157.4,70.706L157.59,70.669L157.66,70.517L157.75,70.431L157.97,70.354L158.1,70.169L158.12,69.827L158.15,69.762L158.16,69.675L158.23,69.642L158.27,69.341L158.35,69.159L158.38,69.11L158.5,69.038L158.56,69.013L158.67,68.843L158.76,68.771L158.76,68.731L158.88,68.608L158.89,68.514L158.96,68.369L159.03,68.249L159.25,67.812L159.33,67.644L159.44,67.58L159.52,67.492L159.56,67.439L159.62,67.256L159.62,67.084L159.73,66.741L159.8,66.502L159.85,66.421L159.98,66.299L160.3,66.075L160.51,66.029L160.67,65.959L160.7,65.891L160.81,65.641L160.9,65.232L160.93,65.136L161.07,64.863L161.08,64.628L161.51,64.55L161.66,64.378L161.86,64.165L161.87,64.122L161.89,64.043L162.09,64.009L162.13,63.664L162.34,63.388L162.39,63.359L162.46,63.079L162.69,62.799L163.4,62.337L163.41,62.167L163.61,62.01L163.73,61.791L163.8,61.666L164.19,61.331L164.3,60.973L164.57,60.845L164.58,60.695L164.8,60.172L164.83,60.058L164.99,59.945L165.13,59.88L165.31,59.779L165.33,59.517L165.36,59.473L165.37,59.455L165.46,59.334L165.58,59.274L165.86,58.963L166.26,58.837L166.48,58.689L166.56,58.652L166.6,58.644L166.82,58.593L166.82,58.437L166.9,58.42L166.99,58.369L167.16,58.046L167.18,57.967L167.38,57.712L167.44,57.547L167.52,57.168L167.53,57.097L167.56,57.09L167.59,56.691L167.59,56.631L167.69,56.598L167.82,56.576L168.24,56.438L168.43,56.345L168.45,55.934L169.18,55.845L169.34,55.771L169.53,55.736L169.68,55.555L169.89,55.058L169.9,55.013L170.41,54.743L170.41,54.148L170.68,54.021L170.92,53.722L171.02,53.666L171.08,53.244L171.23,53.226L171.32,53.155L171.34,52.807L171.35,52.642L171.87,51.602L172.18,51.517L172.49,50.882L172.51,50.825L172.99,50.758L173.12,50.708L173.23,50.154L173.58,49.902L173.64,48.542L174.1,48.358L174.51,48.296L175.62,47.176L175.67,46.942L175.8,46.339L176.02,46.025L176.75,45.279L177.1,44.786L177.25,44.759L177.29,44.066L177.91,43.987L178.58,43.891L178.7,43.292L179.51,42.958L180.93,41.574L182.47,41.476L183.84,40.579L185.68,40.415L186.59,40.087L189.15,39.569" style="fill:none;stroke:#1F77B4" />
<path d="M36.666,210.11L56.666,210.11" style="fill:none;stroke:#FF7F0E" />
<text x="59.666" y="-204.45" transform="scale(1, -1)"
	style="font-family:Times;font-weight:normal;font-style:normal;font-size:12px">analytical</text>
<path d="M36.666,198.33L56.666,198.33" style="fill:none;stroke:#1F77B4" />
<text x="59.666" y="-192.67" transform="scale(1, -1)"
	style="font-family:Times;font-weight:normal;font-style:normal;font-size:12px">proximal</text>
</g>
</svg>
