<?xml version="1.0"?>
<!-- Generated by SVGo and Plotinum VG -->
<svg width="216pt" height="216pt" viewBox="0 0 216 216"
	xmlns="http://www.w3.org/2000/svg"
	xmlns:xlink="http://www.w3.org/1999/xlink">
<g transform="scale(1, -1) translate(0, -216)">
<path d="M0,0L216,0L216,216L0,216Z" style="fill:#FFFFFF" />
<text x="123.33" y="-3.8613" transform="scale(1, -1)"
	style="font-family:Times;font-weight:normal;font-style:normal;font-size:12px">x</text>
<text x="48.804" y="-15.602" transform="scale(1, -1)"
	style="font-family:Times;font-weight:normal;font-style:normal;font-size:10px">-3</text>
<text x="99.378" y="-15.602" transform="scale(1, -1)"
	style="font-family:Times;font-weight:normal;font-style:normal;font-size:10px">0</text>
<text x="148.29" y="-15.602" transform="scale(1, -1)"
	style="font-family:Times;font-weight:normal;font-style:normal;font-size:10px">3</text>
<text x="197.2" y="-15.602" transform="scale(1, -1)"
	style="font-family:Times;font-weight:normal;font-style:normal;font-size:10px">6</text>
<path d="M52.969,25.23L52.969,33.23" style="fill:none;stroke:#000000;stroke-width:0.5" />
<path d="M101.88,25.23L101.88,33.23" style="fill:none;stroke:#000000;stroke-width:0.5" />
<path d="M150.79,25.23L150.79,33.23" style="fill:none;stroke:#000000;stroke-width:0.5" />
<path d="M199.7,25.23L199.7,33.23" style="fill:none;stroke:#000000;stroke-width:0.5" />
<path d="M69.272,29.23L69.272,33.23" style="fill:none;stroke:#000000;stroke-width:0.5" />
<path d="M85.575,29.23L85.575,33.23" style="fill:none;stroke:#000000;stroke-width:0.5" />
<path d="M118.18,29.23L118.18,33.23" style="fill:none;stroke:#000000;stroke-width:0.5" />
<path d="M134.48,29.23L134.48,33.23" style="fill:none;stroke:#000000;stroke-width:0.5" />
<path d="M167.09,29.23L167.09,33.23" style="fill:none;stroke:#000000;stroke-width:0.5" />
<path d="M183.39,29.23L183.39,33.23" style="fill:none;stroke:#000000;stroke-width:0.5" />
<path d="M216,29.23L216,33.23" style="fill:none;stroke:#000000;stroke-width:0.5" />
<path d="M36.666,33.23L216,33.23" style="fill:none;stroke:#000000;stroke-width:0.5" />
<g transform="rotate(90)">
<text x="111.62" y="11.555" transform="scale(1, -1)"
	style="font-family:Times;font-weight:normal;font-style:normal;font-size:12px">p(x,t)</text>
</g>
<text x="15.416" y="-33.759" transform="scale(1, -1)"
	style="font-family:Times;font-weight:normal;font-style:normal;font-size:10px">0</text>
<text x="15.416" y="-120.06" transform="scale(1, -1)"
	style="font-family:Times;font-weight:normal;font-style:normal;font-size:10px">1</text>
<text x="15.416" y="-206.37" transform="scale(1, -1)"
	style="font-family:Times;font-weight:normal;font-style:normal;font-size:10px">2</text>
<path d="M22.916,38.48L30.916,38.48" style="fill:none;stroke:#000000;stroke-width:0.5" />
<path d="M22.916,124.79L30.916,124.79" style="fill:none;stroke:#000000;stroke-width:0.5" />
<path d="M22.916,211.09L30.916,211.09" style="fill:none;stroke:#000000;stroke-width:0.5" />
<path d="M26.916,55.742L30.916,55.742" style="fill:none;stroke:#000000;stroke-width:0.5" />
<path d="M26.916,73.003L30.916,73.003" style="fill:none;stroke:#000000;stroke-width:0.5" />
<path d="M26.916,90.264L30.916,90.264" style="fill:none;stroke:#000000;stroke-width:0.5" />
<path d="M26.916,107.53L30.916,107.53" style="fill:none;stroke:#000000;stroke-width:0.5" />
<path d="M26.916,142.05L30.916,142.05" style="fill:none;stroke:#000000;stroke-width:0.5" />
<path d="M26.916,159.31L30.916,159.31" style="fill:none;stroke:#000000;stroke-width:0.5" />
<path d="M26.916,176.57L30.916,176.57" style="fill:none;stroke:#000000;stroke-width:0.5" />
<path d="M26.916,193.83L30.916,193.83" style="fill:none;stroke:#000000;stroke-width:0.5" />
<path d="M30.916,38.48L30.916,211.09" style="fill:none;stroke:#000000;stroke-width:0.5" />
<path d="M36.666,38.488L37.175,38.49L37.685,38.491L38.194,38.492L38.704,38.494L39.213,38.495L39.723,38.497L40.232,38.499L40.742,38.502L41.251,38.505L41.761,38.508L42.27,38.511L42.78,38.515L43.289,38.519L43.799,38.524L44.308,38.529L44.818,38.535L45.327,38.541L45.837,38.548L46.346,38.556L46.855,38.565L47.365,38.575L47.874,38.585L48.384,38.597L48.893,38.61L49.403,38.624L49.912,38.639L50.422,38.657L50.931,38.675L51.441,38.696L51.95,38.718L52.46,38.743L52.969,38.769L53.479,38.799L53.988,38.83L54.498,38.865L55.007,38.903L55.516,38.943L56.026,38.988L56.535,39.035L57.045,39.087L57.554,39.143L58.064,39.204L58.573,39.269L59.083,39.339L59.592,39.415L60.102,39.497L60.611,39.584L61.121,39.678L61.63,39.778L62.14,39.885L62.649,40L63.159,40.123L63.668,40.254L64.177,40.393L64.687,40.541L65.196,40.699L65.706,40.866L66.215,41.043L66.725,41.231L67.234,41.43L67.744,41.64L68.253,41.862L68.763,42.096L69.272,42.342L69.782,42.601L70.291,42.873L70.801,43.158L71.31,43.457L71.82,43.77L72.329,44.097L72.838,44.439L73.348,44.795L73.857,45.166L74.367,45.552L74.876,45.953L75.386,46.368L75.895,46.799L76.405,47.245L76.914,47.705L77.424,48.181L77.933,48.671L78.443,49.175L78.952,49.693L79.462,50.225L79.971,50.77L80.481,51.327L80.99,51.897L81.5,52.479L82.009,53.071L82.518,53.674L83.028,54.286L83.537,54.906L84.047,55.535L84.556,56.17L85.066,56.811L85.575,57.456L86.085,58.105L86.594,58.757L87.104,59.409L87.613,60.062L88.123,60.713L88.632,61.362L89.142,62.006L89.651,62.645L90.161,63.277L90.67,63.901L91.179,64.515L91.689,65.117L92.198,65.708L92.708,66.284L93.217,66.844L93.727,67.387L94.236,67.913L94.746,68.418L95.255,68.902L95.765,69.365L96.274,69.803L96.784,70.217L97.293,70.604L97.803,70.965L98.312,71.298L98.822,71.602L99.331,71.875L99.84,72.119L100.35,72.331L100.86,72.511L101.37,72.658L101.88,72.773L102.39,72.855L102.9,72.903L103.41,72.917L103.92,72.898L104.43,72.845L104.94,72.759L105.44,72.64L105.95,72.488L106.46,72.303L106.97,72.087L107.48,71.839L107.99,71.561L108.5,71.253L109.01,70.917L109.52,70.552L110.03,70.161L110.54,69.744L111.05,69.302L111.56,68.836L112.07,68.349L112.58,67.841L113.09,67.313L113.6,66.767L114.11,66.204L114.62,65.626L115.12,65.034L115.63,64.43L116.14,63.815L116.65,63.19L117.16,62.556L117.67,61.917L118.18,61.272L118.69,60.623L119.2,59.971L119.71,59.319L120.22,58.666L120.73,58.015L121.24,57.366L121.75,56.721L122.26,56.081L122.77,55.447L123.28,54.82L123.79,54.2L124.3,53.589L124.8,52.988L125.31,52.397L125.82,51.817L126.33,51.249L126.84,50.693L127.35,50.15L127.86,49.62L128.37,49.104L128.88,48.602L129.39,48.114L129.9,47.641L130.41,47.182L130.92,46.738L131.43,46.31L131.94,45.896L132.45,45.497L132.96,45.114L133.47,44.745L133.98,44.391L134.48,44.051L134.99,43.726L135.5,43.415L136.01,43.118L136.52,42.834L137.03,42.564L137.54,42.307L138.05,42.063L138.56,41.831L139.07,41.61L139.58,41.402L140.09,41.205L140.6,41.018L141.11,40.842L141.62,40.676L142.13,40.52L142.64,40.373L143.15,40.235L143.66,40.105L144.16,39.984L144.67,39.87L145.18,39.764L145.69,39.664L146.2,39.571L146.71,39.485L147.22,39.404L147.73,39.329L148.24,39.26L148.75,39.195L149.26,39.135L149.77,39.08L150.28,39.029L150.79,38.981L151.3,38.937L151.81,38.897L152.32,38.86L152.83,38.826L153.33,38.794L153.84,38.766L154.35,38.739L154.86,38.715L155.37,38.693L155.88,38.673L156.39,38.654L156.9,38.637L157.41,38.622L157.92,38.608L158.43,38.595L158.94,38.584L159.45,38.573L159.96,38.564L160.47,38.555L160.98,38.547L161.49,38.54L162,38.534L162.51,38.528L163.01,38.523L163.52,38.518L164.03,38.514L164.54,38.511L165.05,38.507L165.56,38.504L166.07,38.502L166.58,38.499L167.09,38.497L167.6,38.495L168.11,38.493L168.62,38.492L169.13,38.491L169.64,38.489L170.15,38.488L170.66,38.487L171.17,38.487L171.68,38.486L172.19,38.485L172.69,38.485L173.2,38.484L173.71,38.484L174.22,38.483L174.73,38.483L175.24,38.483L175.75,38.482L176.26,38.482L176.77,38.482L177.28,38.482L177.79,38.481L178.3,38.481L178.81,38.481L179.32,38.481L179.83,38.481L180.34,38.481L180.85,38.481L181.36,38.481L181.87,38.481L182.37,38.481L182.88,38.481L183.39,38.481L183.9,38.481L184.41,38.481L184.92,38.481L185.43,38.481L185.94,38.481L186.45,38.481L186.96,38.481L187.47,38.481L187.98,38.481L188.49,38.481L189,38.481L189.51,38.48L190.02,38.48L190.53,38.48L191.04,38.48L191.55,38.48L192.05,38.48L192.56,38.48L193.07,38.48L193.58,38.48L194.09,38.48L194.6,38.48L195.11,38.48L195.62,38.48L196.13,38.48L196.64,38.48L197.15,38.48L197.66,38.48L198.17,38.48L198.68,38.48L199.19,38.48L199.7,38.48L200.21,38.48L200.72,38.48L201.23,38.48L201.73,38.48L202.24,38.48L202.75,38.48L203.26,38.48L203.77,38.48L204.28,38.48L204.79,38.48L205.3,38.48L205.81,38.48L206.32,38.48L206.83,38.48L207.34,38.48L207.85,38.48L208.36,38.48L208.87,38.48L209.38,38.48L209.89,38.48L210.4,38.48L210.91,38.48L211.41,38.48L211.92,38.48L212.43,38.48L212.94,38.48L213.45,38.48L213.96,38.48L214.47,38.48L214.98,38.48L215.49,38.48L216,38.48" style="fill:none;stroke:#FF7F0E" />
<path d="M56.472,40.078L57.202,40.256L59.616,40.447L60.463,40.438L62.068,40.104L67.847,40.719L69.993,42.687L72.042,44.5L72.817,45.904L72.856,45.962L73.278,46.483L73.371,46.918L73.381,46.932L73.442,47.056L73.737,47.108L74.254,47.287L74.527,47.542L74.849,47.709L74.93,47.764L75.472,47.887L75.75,48.264L75.935,48.595L76.574,48.785L76.927,48.93L77.144,48.95L77.401,49.079L78.179,50.554L79.592,50.982L79.835,51.206L80.076,51.353L80.35,51.717L80.585,52.382L80.677,52.548L81.104,52.757L81.272,52.914L81.291,53.244L81.356,53.34L81.741,53.39L81.823,53.561L81.878,54.026L81.889,54.118L82.041,54.283L82.414,54.442L82.648,54.796L82.667,54.846L82.867,54.871L83.086,55.125L83.519,55.36L83.79,55.406L83.894,56.727L84.813,57.734L84.819,57.754L84.842,58.025L85.052,58.091L85.228,58.535L85.305,58.663L85.416,58.97L86.074,59.525L86.755,59.789L86.863,60.335L86.883,60.52L87.024,60.571L87.077,60.794L87.243,60.835L87.247,60.983L87.325,61.014L87.594,61.14L87.699,61.246L87.822,61.264L87.855,61.434L88.038,61.757L88.076,61.991L88.129,62.256L88.144,62.456L88.415,62.795L88.657,62.825L88.992,62.909L89.045,63.516L89.154,63.711L89.41,63.745L89.449,63.824L89.512,63.867L89.574,64.146L89.578,64.343L89.635,64.483L89.923,64.595L90.071,64.669L90.128,64.778L90.258,64.803L90.459,64.897L90.69,65.001L90.797,65.233L90.881,65.279L90.931,65.585L91.035,65.694L91.048,65.784L91.108,65.919L91.184,65.932L91.212,66.137L91.314,66.17L91.315,66.294L91.411,66.483L91.723,66.773L91.803,66.854L92.062,66.897L92.59,67.1L92.743,67.14L93.068,67.602L93.072,67.927L93.332,68.011L93.374,68.159L93.42,68.322L93.638,68.339L93.895,68.368L94.025,68.373L94.105,68.435L94.111,68.613L94.17,68.85L94.361,69.261L94.621,69.428L94.656,69.688L94.888,69.785L95.086,70.166L95.259,70.183L95.356,70.214L95.377,70.343L95.407,70.408L95.421,70.523L95.528,70.536L95.587,70.59L95.763,70.695L95.777,70.803L95.817,70.824L96.003,70.92L96.009,71.014L96.172,71.069L96.211,71.076L96.304,71.227L96.37,71.26L96.412,71.312L96.534,71.329L96.542,71.38L97.109,71.405L97.234,71.612L97.261,71.873L97.434,71.894L97.454,72.116L97.518,72.538L97.69,72.544L97.777,72.653L97.788,72.759L97.861,72.77L97.923,72.949L98.059,72.97L98.162,72.985L98.199,73.033L98.302,73.044L98.509,73.144L98.688,73.188L98.824,73.313L99.138,73.324L99.179,73.332L99.216,73.431L99.363,73.636L99.594,73.649L99.645,73.682L99.704,73.708L99.705,73.735L99.726,73.738L99.751,73.79L99.804,73.791L99.829,73.812L99.979,73.817L100.02,73.907L100.05,73.913L100.17,73.924L100.23,74.003L100.28,74.021L100.41,74.035L100.47,74.041L100.55,74.059L100.64,74.065L100.75,74.079L100.86,74.088L100.91,74.088L100.95,74.096L101.05,74.098L101.11,74.102L101.22,74.105L101.3,74.106L101.32,74.106L101.35,74.102L101.51,74.095L101.81,74.092L101.9,74.052L101.93,74.044L101.96,74.02L102.08,73.965L102.2,73.952L102.23,73.931L102.41,73.921L102.85,73.876L102.91,73.843L102.97,73.822L103.28,73.655L103.29,73.64L103.29,73.425L103.35,73.406L103.38,73.403L103.46,73.384L103.55,73.365L103.57,73.346L103.59,73.285L103.78,73.233L103.89,73.226L103.93,73.215L104.02,73.123L104.15,73.115L104.3,73.095L104.48,73.081L104.58,73.001L104.64,72.969L104.88,72.966L104.99,72.89L105,72.876L105.04,72.764L105.14,72.711L105.21,72.698L105.49,72.643L105.53,72.626L105.53,72.616L105.6,72.605L105.6,72.587L105.83,72.556L105.83,72.498L105.84,72.48L106.06,72.46L106.23,72.393L106.26,72.354L106.55,72.14L106.57,72.108L106.67,72.026L106.7,71.998L106.8,71.981L106.99,71.956L107.12,71.934L107.13,71.921L107.3,71.881L107.31,71.834L107.33,71.827L107.39,71.736L107.44,71.729L107.63,71.715L107.78,71.7L108,71.548L108.11,71.534L108.42,71.492L108.42,71.443L108.71,71.405L108.82,71.388L109.16,71.262L109.17,71.178L109.2,71.133L109.34,71.087L109.53,71.071L109.54,70.995L109.67,70.943L109.71,70.851L109.78,70.831L109.92,70.797L110.09,70.758L110.09,70.674L110.12,70.673L110.14,70.658L110.16,70.577L110.18,70.562L110.27,70.531L110.37,70.528L110.62,70.522L110.87,70.516L111.05,70.494L111.31,70.432L111.32,70.404L111.35,70.384L111.53,70.162L111.57,70.151L111.58,70.106L111.76,70.068L111.81,70.035L112.06,69.891L112.22,69.794L112.24,69.789L112.36,69.67L112.4,69.459L112.4,69.445L112.42,69.076L112.45,68.849L112.58,68.77L112.61,68.59L112.65,68.515L112.65,68.348L112.75,68.019L112.9,67.945L113.01,67.89L113.32,67.776L113.34,67.701L113.63,67.597L113.72,67.451L113.79,67.407L113.82,67.165L113.93,66.915L114.12,66.779L114.13,66.587L114.19,66.558L114.34,66.47L114.34,66.162L114.41,66.142L114.44,65.95L114.45,65.784L114.56,65.654L114.59,65.35L114.94,64.79L114.98,64.362L114.99,64.08L115.07,63.973L115.23,63.885L115.24,62.964L115.58,62.862L116.04,62.572L116.04,62.435L116.09,62.13L116.11,61.688L116.2,60.757L116.42,60.274L116.42,59.621L116.54,58.94L116.91,57.474L116.98,56.923L117.06,55.735L117.73,55.514L118.17,54.01L118.49,53.925L119.01,53.883L119.87,53.131L119.91,53.016L120.28,52.365L120.47,52.037L120.57,51.796L120.75,51.286L122.06,50.859L122.34,50.121L122.51,50.007L122.97,49.988L123.06,49.949L123.36,49.823L123.41,49.775L123.64,49.707L123.72,49.693L124.55,49.587L124.56,49.526L124.87,49.47L125.19,49.434L125.23,49.38L125.62,49.32L125.74,49.302L126,49.093L126.08,49.082L126.87,48.998L127.37,48.86L128.17,48.692L128.22,48.655L128.34,48.229L128.63,48.159L129.06,48.101L129.24,47.788L129.48,47.746L129.6,47.422L129.93,47.333L130.21,47.234L130.76,47.131L130.93,46.856L131.88,46.62L132.09,45.859L132.71,45.163L132.85,45.125L133.16,45.03L133.55,44.762L134.13,44.547L136.35,43.465L137.56,43.342L137.61,43.135L138.46,42.87L139.69,42.836L140.05,42.81L140.2,42.369L140.96,42.339L141.61,42.259L142.06,42.151L142.33,41.729L150.86,38.997" style="fill:none;stroke:#1F77B4" />
<path d="M36.666,210.11L56.666,210.11" style="fill:none;stroke:#FF7F0E" />
<text x="59.666" y="-204.45" transform="scale(1, -1)"
	style="font-family:Times;font-weight:normal;font-style:normal;font-size:12px">analytical</text>
<path d="M36.666,198.33L56.666,198.33" style="fill:none;stroke:#1F77B4" />
<text x="59.666" y="-192.67" transform="scale(1, -1)"
	style="font-family:Times;font-weight:normal;font-style:normal;font-size:12px">proximal</text>
</g>
</svg>
