<?xml version="1.0"?>
<!-- Generated by SVGo and Plotinum VG -->
<svg width="216pt" height="216pt" viewBox="0 0 216 216"
	xmlns="http://www.w3.org/2000/svg"
	xmlns:xlink="http://www.w3.org/1999/xlink">
<g transform="scale(1, -1) translate(0, -216)">
<path d="M0,0L216,0L216,216L0,216Z" style="fill:#FFFFFF" />
<text x="123.33" y="-3.8613" transform="scale(1, -1)"
	style="font-family:Times;font-weight:normal;font-style:normal;font-size:12px">x</text>
<text x="48.804" y="-15.602" transform="scale(1, -1)"
	style="font-family:Times;font-weight:normal;font-style:normal;font-size:10px">-3</text>
<text x="99.378" y="-15.602" transform="scale(1, -1)"
	style="font-family:Times;font-weight:normal;font-style:normal;font-size:10px">0</text>
<text x="148.29" y="-15.602" transform="scale(1, -1)"
	style="font-family:Times;font-weight:normal;font-style:normal;font-size:10px">3</text>
<text x="197.2" y="-15.602" transform="scale(1, -1)"
	style="font-family:Times;font-weight:normal;font-style:normal;font-size:10px">6</text>
<path d="M52.969,25.23L52.969,33.23" style="fill:none;stroke:#000000;stroke-width:0.5" />
<path d="M101.88,25.23L101.88,33.23" style="fill:none;stroke:#000000;stroke-width:0.5" />
<path d="M150.79,25.23L150.79,33.23" style="fill:none;stroke:#000000;stroke-width:0.5" />
<path d="M199.7,25.23L199.7,33.23" style="fill:none;stroke:#000000;stroke-width:0.5" />
<path d="M69.272,29.23L69.272,33.23" style="fill:none;stroke:#000000;stroke-width:0.5" />
<path d="M85.575,29.23L85.575,33.23" style="fill:none;stroke:#000000;stroke-width:0.5" />
<path d="M118.18,29.23L118.18,33.23" style="fill:none;stroke:#000000;stroke-width:0.5" />
<path d="M134.48,29.23L134.48,33.23" style="fill:none;stroke:#000000;stroke-width:0.5" />
<path d="M167.09,29.23L167.09,33.23" style="fill:none;stroke:#000000;stroke-width:0.5" />
<path d="M183.39,29.23L183.39,33.23" style="fill:none;stroke:#000000;stroke-width:0.5" />
<path d="M216,29.23L216,33.23" style="fill:none;stroke:#000000;stroke-width:0.5" />
<path d="M36.666,33.23L216,33.23" style="fill:none;stroke:#000000;stroke-width:0.5" />
<g transform="rotate(90)">
<text x="111.62" y="11.555" transform="scale(1, -1)"
	style="font-family:Times;font-weight:normal;font-style:normal;font-size:12px">p(x,t)</text>
</g>
<text x="15.416" y="-33.759" transform="scale(1, -1)"
	style="font-family:Times;font-weight:normal;font-style:normal;font-size:10px">0</text>
<text x="15.416" y="-120.06" transform="scale(1, -1)"
	style="font-family:Times;font-weight:normal;font-style:normal;font-size:10px">1</text>
<text x="15.416" y="-206.37" transform="scale(1, -1)"
	style="font-family:Times;font-weight:normal;font-style:normal;font-size:10px">2</text>
<path d="M22.916,38.48L30.916,38.48" style="fill:none;stroke:#000000;stroke-width:0.5" />
<path d="M22.916,124.79L30.916,124.79" style="fill:none;stroke:#000000;stroke-width:0.5" />
<path d="M22.916,211.09L30.916,211.09" style="fill:none;stroke:#000000;stroke-width:0.5" />
<path d="M26.916,55.742L30.916,55.742" style="fill:none;stroke:#000000;stroke-width:0.5" />
<path d="M26.916,73.003L30.916,73.003" style="fill:none;stroke:#000000;stroke-width:0.5" />
<path d="M26.916,90.264L30.916,90.264" style="fill:none;stroke:#000000;stroke-width:0.5" />
<path d="M26.916,107.53L30.916,107.53" style="fill:none;stroke:#000000;stroke-width:0.5" />
<path d="M26.916,142.05L30.916,142.05" style="fill:none;stroke:#000000;stroke-width:0.5" />
<path d="M26.916,159.31L30.916,159.31" style="fill:none;stroke:#000000;stroke-width:0.5" />
<path d="M26.916,176.57L30.916,176.57" style="fill:none;stroke:#000000;stroke-width:0.5" />
<path d="M26.916,193.83L30.916,193.83" style="fill:none;stroke:#000000;stroke-width:0.5" />
<path d="M30.916,38.48L30.916,211.09" style="fill:none;stroke:#000000;stroke-width:0.5" />
<path d="M36.666,38.485L37.175,38.485L37.685,38.486L38.194,38.486L38.704,38.487L39.213,38.488L39.723,38.489L40.232,38.491L40.742,38.492L41.251,38.493L41.761,38.495L42.27,38.497L42.78,38.499L43.289,38.502L43.799,38.504L44.308,38.507L44.818,38.511L45.327,38.514L45.837,38.518L46.346,38.523L46.855,38.528L47.365,38.534L47.874,38.54L48.384,38.547L48.893,38.555L49.403,38.564L49.912,38.573L50.422,38.584L50.931,38.595L51.441,38.608L51.95,38.622L52.46,38.637L52.969,38.654L53.479,38.673L53.988,38.693L54.498,38.715L55.007,38.739L55.516,38.766L56.026,38.795L56.535,38.826L57.045,38.861L57.554,38.898L58.064,38.938L58.573,38.982L59.083,39.03L59.592,39.081L60.102,39.137L60.611,39.197L61.121,39.261L61.63,39.331L62.14,39.406L62.649,39.487L63.159,39.574L63.668,39.667L64.177,39.767L64.687,39.874L65.196,39.988L65.706,40.11L66.215,40.24L66.725,40.378L67.234,40.526L67.744,40.683L68.253,40.849L68.763,41.026L69.272,41.213L69.782,41.411L70.291,41.62L70.801,41.841L71.31,42.074L71.82,42.32L72.329,42.578L72.838,42.849L73.348,43.133L73.857,43.432L74.367,43.744L74.876,44.07L75.386,44.411L75.895,44.767L76.405,45.137L76.914,45.522L77.424,45.922L77.933,46.338L78.443,46.768L78.952,47.213L79.462,47.673L79.971,48.148L80.481,48.638L80.99,49.142L81.5,49.66L82.009,50.192L82.518,50.737L83.028,51.294L83.537,51.864L84.047,52.446L84.556,53.039L85.066,53.642L85.575,54.255L86.085,54.876L86.594,55.505L87.104,56.141L87.613,56.783L88.123,57.429L88.632,58.08L89.142,58.732L89.651,59.386L90.161,60.04L90.67,60.693L91.179,61.343L91.689,61.989L92.198,62.63L92.708,63.263L93.217,63.889L93.727,64.505L94.236,65.11L94.746,65.702L95.255,66.28L95.765,66.842L96.274,67.388L96.784,67.915L97.293,68.423L97.803,68.909L98.312,69.373L98.822,69.814L99.331,70.23L99.84,70.62L100.35,70.982L100.86,71.317L101.37,71.623L101.88,71.898L102.39,72.144L102.9,72.357L103.41,72.539L103.92,72.688L104.43,72.805L104.94,72.888L105.44,72.937L105.95,72.953L106.46,72.935L106.97,72.883L107.48,72.798L107.99,72.679L108.5,72.528L109.01,72.344L109.52,72.128L110.03,71.881L110.54,71.603L111.05,71.295L111.56,70.958L112.07,70.594L112.58,70.202L113.09,69.785L113.6,69.343L114.11,68.877L114.62,68.389L115.12,67.88L115.63,67.351L116.14,66.804L116.65,66.241L117.16,65.662L117.67,65.069L118.18,64.463L118.69,63.847L119.2,63.22L119.71,62.586L120.22,61.945L120.73,61.299L121.24,60.648L121.75,59.996L122.26,59.342L122.77,58.688L123.28,58.035L123.79,57.385L124.3,56.739L124.8,56.098L125.31,55.462L125.82,54.833L126.33,54.213L126.84,53.601L127.35,52.998L127.86,52.406L128.37,51.825L128.88,51.256L129.39,50.699L129.9,50.155L130.41,49.624L130.92,49.107L131.43,48.604L131.94,48.115L132.45,47.641L132.96,47.182L133.47,46.738L133.98,46.309L134.48,45.895L134.99,45.495L135.5,45.111L136.01,44.742L136.52,44.388L137.03,44.048L137.54,43.722L138.05,43.411L138.56,43.114L139.07,42.83L139.58,42.56L140.09,42.303L140.6,42.058L141.11,41.826L141.62,41.606L142.13,41.397L142.64,41.2L143.15,41.014L143.66,40.838L144.16,40.672L144.67,40.516L145.18,40.369L145.69,40.231L146.2,40.101L146.71,39.98L147.22,39.866L147.73,39.76L148.24,39.661L148.75,39.568L149.26,39.482L149.77,39.401L150.28,39.326L150.79,39.257L151.3,39.192L151.81,39.133L152.32,39.077L152.83,39.026L153.33,38.979L153.84,38.935L154.35,38.895L154.86,38.858L155.37,38.824L155.88,38.793L156.39,38.764L156.9,38.738L157.41,38.714L157.92,38.692L158.43,38.671L158.94,38.653L159.45,38.636L159.96,38.621L160.47,38.607L160.98,38.594L161.49,38.583L162,38.572L162.51,38.563L163.01,38.555L163.52,38.547L164.03,38.54L164.54,38.534L165.05,38.528L165.56,38.523L166.07,38.518L166.58,38.514L167.09,38.51L167.6,38.507L168.11,38.504L168.62,38.501L169.13,38.499L169.64,38.497L170.15,38.495L170.66,38.493L171.17,38.492L171.68,38.49L172.19,38.489L172.69,38.488L173.2,38.487L173.71,38.486L174.22,38.486L174.73,38.485L175.24,38.484L175.75,38.484L176.26,38.484L176.77,38.483L177.28,38.483L177.79,38.483L178.3,38.482L178.81,38.482L179.32,38.482L179.83,38.482L180.34,38.481L180.85,38.481L181.36,38.481L181.87,38.481L182.37,38.481L182.88,38.481L183.39,38.481L183.9,38.481L184.41,38.481L184.92,38.481L185.43,38.481L185.94,38.481L186.45,38.481L186.96,38.481L187.47,38.481L187.98,38.481L188.49,38.481L189,38.481L189.51,38.481L190.02,38.481L190.53,38.481L191.04,38.481L191.55,38.481L192.05,38.48L192.56,38.48L193.07,38.48L193.58,38.48L194.09,38.48L194.6,38.48L195.11,38.48L195.62,38.48L196.13,38.48L196.64,38.48L197.15,38.48L197.66,38.48L198.17,38.48L198.68,38.48L199.19,38.48L199.7,38.48L200.21,38.48L200.72,38.48L201.23,38.48L201.73,38.48L202.24,38.48L202.75,38.48L203.26,38.48L203.77,38.48L204.28,38.48L204.79,38.48L205.3,38.48L205.81,38.48L206.32,38.48L206.83,38.48L207.34,38.48L207.85,38.48L208.36,38.48L208.87,38.48L209.38,38.48L209.89,38.48L210.4,38.48L210.91,38.48L211.41,38.48L211.92,38.48L212.43,38.48L212.94,38.48L213.45,38.48L213.96,38.48L214.47,38.48L214.98,38.48L215.49,38.48L216,38.48" style="fill:none;stroke:#FF7F0E" />
<path d="M55.17,38.879L65.143,40.37L67.628,41.499L69.797,42.307L70.137,42.421L71.387,43.521L71.627,44.105L72.162,44.137L72.283,44.233L72.556,44.39L72.569,44.831L74.329,45.589L74.383,45.682L74.629,45.917L75.372,46.05L76.567,47.823L76.814,48.014L77.581,48.179L77.861,48.281L78.164,48.458L78.402,48.941L78.416,49.447L78.914,49.464L79.865,49.56L80.164,49.915L80.171,49.927L80.722,50.144L80.723,50.713L81.083,50.831L81.164,50.88L81.262,51.071L81.324,51.146L81.335,51.152L81.354,51.262L81.831,51.378L82.152,51.423L82.201,51.588L82.214,51.591L82.64,51.637L83.2,52.18L83.362,52.185L83.771,52.211L83.8,52.394L83.898,52.509L85.266,52.664L85.527,53.465L85.732,53.833L85.773,53.887L85.997,53.986L86.178,54.708L86.342,54.955L86.873,55.055L86.92,55.385L87.092,55.601L87.488,55.757L87.527,55.82L87.989,56.073L88.335,56.115L88.403,56.236L88.583,56.523L88.757,56.639L88.791,56.967L89.021,56.998L89.088,57.62L89.194,58.084L89.21,58.76L89.582,58.841L89.977,58.921L90.273,59.092L90.297,59.257L90.38,59.405L90.431,59.64L90.705,59.831L90.731,59.859L90.733,59.948L90.748,60.479L91.492,60.557L91.686,60.585L91.733,60.759L91.856,60.879L91.988,61.023L92.23,61.085L92.284,61.108L92.317,61.256L92.393,61.379L92.409,61.64L92.48,61.705L92.909,61.736L92.951,61.864L93.156,61.89L93.179,61.927L93.427,61.945L93.49,62.082L93.54,62.237L93.667,62.429L93.849,62.455L94.094,62.616L94.113,62.64L94.424,63.03L94.508,63.054L94.684,63.212L94.777,63.228L94.94,63.232L95.059,63.243L95.38,63.331L95.388,63.466L95.549,63.639L95.611,63.662L95.826,63.672L95.866,63.742L95.963,63.827L96.123,63.836L96.233,63.85L96.248,63.949L96.318,63.966L96.354,63.998L96.521,64.024L96.583,64.044L96.921,64.131L97.021,64.164L97.138,64.225L97.394,64.271L97.582,64.333L97.588,64.574L97.774,64.583L98.153,64.66L98.222,64.723L98.26,64.824L98.499,64.865L98.648,64.956L98.662,65.022L99.081,65.131L99.172,65.17L99.485,65.379L99.894,65.68L100.1,65.92L100.12,65.99L100.23,66.009L100.25,66.102L100.32,66.106L100.32,66.113L100.33,66.138L100.35,66.223L100.37,66.257L100.4,66.33L100.42,66.423L100.43,66.496L100.87,66.51L101.04,66.595L101.36,66.639L101.4,66.877L101.46,66.927L101.83,66.992L101.85,67.127L102.3,67.393L102.43,67.477L102.51,67.545L102.58,67.554L102.71,67.683L102.73,67.712L102.84,67.763L102.98,67.831L103.32,67.911L103.34,67.975L103.41,68.18L103.43,68.22L103.46,68.229L103.55,68.264L103.61,68.455L103.72,68.551L103.89,68.74L103.97,68.956L104.05,69.128L104.09,69.187L104.2,69.253L104.3,69.269L104.44,69.619L104.74,69.733L105.06,69.815L105.37,69.904L105.62,69.917L105.66,69.967L105.72,70.069L105.75,70.188L105.8,70.265L106.17,70.293L106.28,70.306L106.38,70.312L106.4,70.472L106.53,70.49L106.67,70.603L106.7,70.786L106.74,70.81L106.77,70.813L106.77,70.857L107.13,70.872L107.17,70.946L107.2,70.953L107.25,70.976L107.28,70.987L107.34,70.995L107.34,71.033L107.44,71.059L107.47,71.102L107.58,71.103L107.95,71.178L107.96,71.19L108,71.212L108.01,71.221L108.03,71.222L108.16,71.22L108.29,71.215L108.39,71.212L108.43,71.184L108.63,71.18L108.85,71.172L108.96,71.154L109,71.145L109.02,71.122L109.24,71.116L109.35,71.084L109.48,71.073L109.51,71.033L109.52,71.017L109.52,70.97L109.6,70.958L109.65,70.929L109.96,70.904L110.03,70.863L110.13,70.849L110.24,70.723L110.31,70.711L110.44,70.708L110.63,70.699L110.65,70.596L110.73,70.518L110.74,70.48L110.91,70.375L111.07,70.364L111.18,70.305L111.22,70.196L111.47,70.165L111.68,70.144L111.72,70.121L111.75,70.002L111.77,70L111.88,69.876L111.97,69.871L111.99,69.773L112.08,69.764L112.4,69.446L112.44,69.431L112.51,69.322L112.73,69.271L112.79,69.259L112.94,69.077L113.24,68.95L113.33,68.917L113.38,68.734L113.45,68.7L113.47,68.698L113.79,68.478L113.95,68.42L114.24,68.272L114.71,68.127L114.81,68.078L114.96,68.023L114.97,68.004L115.03,67.899L115.06,67.893L115.18,67.839L115.22,67.802L115.26,67.728L115.27,67.717L115.37,67.676L115.56,67.485L115.64,67.471L115.68,67.464L115.82,67.414L115.87,67.33L115.96,67.299L115.98,67.288L116.37,67.264L116.4,67.242L116.41,67.219L116.51,67.214L116.58,67.187L117,67.131L117.07,67.1L117.3,66.935L117.49,66.872L117.6,66.826L117.69,66.785L117.73,66.722L117.78,66.667L117.83,66.562L118.02,66.468L118.07,66.466L118.41,66.438L118.45,66.364L118.71,66.309L119.28,66.223L119.31,66.05L119.47,66.017L119.52,65.972L119.52,65.818L119.54,65.654L119.58,65.631L119.75,65.611L119.94,65.592L119.97,65.548L119.98,65.542L120.03,65.424L120.15,65.387L120.35,65.335L120.39,65.21L120.4,65L120.55,64.936L120.66,64.757L120.84,64.737L120.89,64.628L120.95,64.548L121.03,64.454L121.04,64.422L121.19,64.405L121.27,64.387L121.37,64.264L121.39,64.234L121.44,64.07L121.54,63.982L121.57,63.926L121.79,63.795L121.83,63.289L122.21,63.265L122.32,62.681L122.94,62.454L123.23,61.694L123.43,61.632L123.65,61.496L123.74,61.485L123.82,61.436L124.16,61.382L124.17,61.277L124.27,60.525L124.39,60.394L124.41,59.98L124.51,59.953L124.56,59.857L124.6,59.744L124.64,59.493L124.8,59.221L125.24,58.708L125.29,58.622L125.31,58.484L125.34,58.422L125.55,58.402L125.6,58.307L125.91,58.191L126.22,57.794L126.26,57.684L126.78,57.65L127.31,57.419L127.33,56.019L127.68,55.727L127.7,55.176L127.97,54.924L128.11,54.023L128.45,53.671L128.92,52.894L128.96,52.59L129.54,52.089L129.87,51.859L130.04,50.512L130.42,50.426L130.49,50.199L130.52,50.007L130.6,49.886L131.26,49.536L131.69,49.456L131.73,49.346L131.81,48.653L132.37,48.521L132.52,48.483L132.66,48.241L133.18,48.051L133.31,47.923L134.03,47.836L134.16,46.677L135.19,45.906L135.21,44.744L137.91,42.637L138.88,42.49L139.49,42.255L139.56,41.978L139.61,41.742L142.3,41.113L144.2,40.944L146.26,39.947L146.35,39.915L153.98,38.974" style="fill:none;stroke:#1F77B4" />
<path d="M36.666,210.11L56.666,210.11" style="fill:none;stroke:#FF7F0E" />
<text x="59.666" y="-204.45" transform="scale(1, -1)"
	style="font-family:Times;font-weight:normal;font-style:normal;font-size:12px">analytical</text>
<path d="M36.666,198.33L56.666,198.33" style="fill:none;stroke:#1F77B4" />
<text x="59.666" y="-192.67" transform="scale(1, -1)"
	style="font-family:Times;font-weight:normal;font-style:normal;font-size:12px">proximal</text>
</g>
</svg>
