<?xml version="1.0"?>
<!-- Generated by SVGo and Plotinum VG -->
<svg width="216pt" height="216pt" viewBox="0 0 216 216"
	xmlns="http://www.w3.org/2000/svg"
	xmlns:xlink="http://www.w3.org/1999/xlink">
<g transform="scale(1, -1) translate(0, -216)">
<path d="M0,0L216,0L216,216L0,216Z" style="fill:#FFFFFF" />
<text x="123.33" y="-3.8613" transform="scale(1, -1)"
	style="font-family:Times;font-weight:normal;font-style:normal;font-size:12px">x</text>
<text x="48.804" y="-15.602" transform="scale(1, -1)"
	style="font-family:Times;font-weight:normal;font-style:normal;font-size:10px">-3</text>
<text x="99.378" y="-15.602" transform="scale(1, -1)"
	style="font-family:Times;font-weight:normal;font-style:normal;font-size:10px">0</text>
<text x="148.29" y="-15.602" transform="scale(1, -1)"
	style="font-family:Times;font-weight:normal;font-style:normal;font-size:10px">3</text>
<text x="197.2" y="-15.602" transform="scale(1, -1)"
	style="font-family:Times;font-weight:normal;font-style:normal;font-size:10px">6</text>
<path d="M52.969,25.23L52.969,33.23" style="fill:none;stroke:#000000;stroke-width:0.5" />
<path d="M101.88,25.23L101.88,33.23" style="fill:none;stroke:#000000;stroke-width:0.5" />
<path d="M150.79,25.23L150.79,33.23" style="fill:none;stroke:#000000;stroke-width:0.5" />
<path d="M199.7,25.23L199.7,33.23" style="fill:none;stroke:#000000;stroke-width:0.5" />
<path d="M69.272,29.23L69.272,33.23" style="fill:none;stroke:#000000;stroke-width:0.5" />
<path d="M85.575,29.23L85.575,33.23" style="fill:none;stroke:#000000;stroke-width:0.5" />
<path d="M118.18,29.23L118.18,33.23" style="fill:none;stroke:#000000;stroke-width:0.5" />
<path d="M134.48,29.23L134.48,33.23" style="fill:none;stroke:#000000;stroke-width:0.5" />
<path d="M167.09,29.23L167.09,33.23" style="fill:none;stroke:#000000;stroke-width:0.5" />
<path d="M183.39,29.23L183.39,33.23" style="fill:none;stroke:#000000;stroke-width:0.5" />
<path d="M216,29.23L216,33.23" style="fill:none;stroke:#000000;stroke-width:0.5" />
<path d="M36.666,33.23L216,33.23" style="fill:none;stroke:#000000;stroke-width:0.5" />
<g transform="rotate(90)">
<text x="111.62" y="11.555" transform="scale(1, -1)"
	style="font-family:Times;font-weight:normal;font-style:normal;font-size:12px">p(x,t)</text>
</g>
<text x="15.416" y="-33.759" transform="scale(1, -1)"
	style="font-family:Times;font-weight:normal;font-style:normal;font-size:10px">0</text>
<text x="15.416" y="-120.06" transform="scale(1, -1)"
	style="font-family:Times;font-weight:normal;font-style:normal;font-size:10px">1</text>
<text x="15.416" y="-206.37" transform="scale(1, -1)"
	style="font-family:Times;font-weight:normal;font-style:normal;font-size:10px">2</text>
<path d="M22.916,38.48L30.916,38.48" style="fill:none;stroke:#000000;stroke-width:0.5" />
<path d="M22.916,124.79L30.916,124.79" style="fill:none;stroke:#000000;stroke-width:0.5" />
<path d="M22.916,211.09L30.916,211.09" style="fill:none;stroke:#000000;stroke-width:0.5" />
<path d="M26.916,55.742L30.916,55.742" style="fill:none;stroke:#000000;stroke-width:0.5" />
<path d="M26.916,73.003L30.916,73.003" style="fill:none;stroke:#000000;stroke-width:0.5" />
<path d="M26.916,90.264L30.916,90.264" style="fill:none;stroke:#000000;stroke-width:0.5" />
<path d="M26.916,107.53L30.916,107.53" style="fill:none;stroke:#000000;stroke-width:0.5" />
<path d="M26.916,142.05L30.916,142.05" style="fill:none;stroke:#000000;stroke-width:0.5" />
<path d="M26.916,159.31L30.916,159.31" style="fill:none;stroke:#000000;stroke-width:0.5" />
<path d="M26.916,176.57L30.916,176.57" style="fill:none;stroke:#000000;stroke-width:0.5" />
<path d="M26.916,193.83L30.916,193.83" style="fill:none;stroke:#000000;stroke-width:0.5" />
<path d="M30.916,38.48L30.916,211.09" style="fill:none;stroke:#000000;stroke-width:0.5" />
<path d="M36.666,38.48L37.175,38.48L37.685,38.48L38.194,38.48L38.704,38.48L39.213,38.48L39.723,38.48L40.232,38.48L40.742,38.48L41.251,38.48L41.761,38.48L42.27,38.48L42.78,38.48L43.289,38.48L43.799,38.48L44.308,38.48L44.818,38.48L45.327,38.48L45.837,38.48L46.346,38.48L46.855,38.48L47.365,38.48L47.874,38.48L48.384,38.48L48.893,38.48L49.403,38.48L49.912,38.48L50.422,38.48L50.931,38.48L51.441,38.48L51.95,38.481L52.46,38.481L52.969,38.481L53.479,38.481L53.988,38.481L54.498,38.481L55.007,38.481L55.516,38.481L56.026,38.481L56.535,38.481L57.045,38.481L57.554,38.481L58.064,38.481L58.573,38.481L59.083,38.481L59.592,38.481L60.102,38.481L60.611,38.481L61.121,38.481L61.63,38.481L62.14,38.481L62.649,38.482L63.159,38.482L63.668,38.482L64.177,38.482L64.687,38.483L65.196,38.483L65.706,38.483L66.215,38.484L66.725,38.484L67.234,38.485L67.744,38.486L68.253,38.486L68.763,38.487L69.272,38.488L69.782,38.489L70.291,38.491L70.801,38.492L71.31,38.494L71.82,38.496L72.329,38.498L72.838,38.5L73.348,38.503L73.857,38.506L74.367,38.509L74.876,38.513L75.386,38.518L75.895,38.523L76.405,38.528L76.914,38.534L77.424,38.541L77.933,38.549L78.443,38.558L78.952,38.567L79.462,38.578L79.971,38.59L80.481,38.603L80.99,38.617L81.5,38.634L82.009,38.652L82.518,38.671L83.028,38.693L83.537,38.717L84.047,38.744L84.556,38.773L85.066,38.804L85.575,38.839L86.085,38.878L86.594,38.92L87.104,38.965L87.613,39.015L88.123,39.07L88.632,39.129L89.142,39.194L89.651,39.264L90.161,39.339L90.67,39.421L91.179,39.51L91.689,39.606L92.198,39.71L92.708,39.821L93.217,39.941L93.727,40.07L94.236,40.209L94.746,40.357L95.255,40.516L95.765,40.685L96.274,40.867L96.784,41.06L97.293,41.265L97.803,41.484L98.312,41.716L98.822,41.963L99.331,42.224L99.84,42.499L100.35,42.791L100.86,43.098L101.37,43.422L101.88,43.762L102.39,44.12L102.9,44.495L103.41,44.887L103.92,45.298L104.43,45.727L104.94,46.174L105.44,46.64L105.95,47.124L106.46,47.627L106.97,48.148L107.48,48.687L107.99,49.245L108.5,49.819L109.01,50.412L109.52,51.021L110.03,51.646L110.54,52.287L111.05,52.943L111.56,53.614L112.07,54.297L112.58,54.993L113.09,55.7L113.6,56.417L114.11,57.144L114.62,57.877L115.12,58.617L115.63,59.362L116.14,60.11L116.65,60.86L117.16,61.61L117.67,62.358L118.18,63.103L118.69,63.842L119.2,64.574L119.71,65.298L120.22,66.01L120.73,66.71L121.24,67.395L121.75,68.063L122.26,68.713L122.77,69.342L123.28,69.95L123.79,70.533L124.3,71.09L124.8,71.62L125.31,72.121L125.82,72.591L126.33,73.029L126.84,73.433L127.35,73.802L127.86,74.135L128.37,74.431L128.88,74.688L129.39,74.907L129.9,75.085L130.41,75.224L130.92,75.321L131.43,75.378L131.94,75.393L132.45,75.366L132.96,75.298L133.47,75.189L133.98,75.04L134.48,74.85L134.99,74.62L135.5,74.352L136.01,74.046L136.52,73.703L137.03,73.324L137.54,72.91L138.05,72.463L138.56,71.984L139.07,71.475L139.58,70.938L140.09,70.373L140.6,69.783L141.11,69.169L141.62,68.534L142.13,67.879L142.64,67.205L143.15,66.516L143.66,65.813L144.16,65.097L144.67,64.371L145.18,63.637L145.69,62.896L146.2,62.15L146.71,61.401L147.22,60.651L147.73,59.902L148.24,59.154L148.75,58.411L149.26,57.672L149.77,56.94L150.28,56.217L150.79,55.502L151.3,54.798L151.81,54.105L152.32,53.425L152.83,52.759L153.33,52.107L153.84,51.47L154.35,50.849L154.86,50.245L155.37,49.658L155.88,49.087L156.39,48.535L156.9,48.001L157.41,47.485L157.92,46.988L158.43,46.509L158.94,46.048L159.45,45.606L159.96,45.182L160.47,44.776L160.98,44.388L161.49,44.018L162,43.666L162.51,43.33L163.01,43.011L163.52,42.708L164.03,42.421L164.54,42.149L165.05,41.893L165.56,41.65L166.07,41.422L166.58,41.207L167.09,41.005L167.6,40.815L168.11,40.637L168.62,40.47L169.13,40.315L169.64,40.169L170.15,40.033L170.66,39.907L171.17,39.789L171.68,39.68L172.19,39.579L172.69,39.485L173.2,39.398L173.71,39.318L174.22,39.243L174.73,39.175L175.24,39.112L175.75,39.054L176.26,39.001L176.77,38.952L177.28,38.908L177.79,38.867L178.3,38.829L178.81,38.795L179.32,38.764L179.83,38.736L180.34,38.71L180.85,38.687L181.36,38.666L181.87,38.646L182.37,38.629L182.88,38.613L183.39,38.599L183.9,38.586L184.41,38.575L184.92,38.564L185.43,38.555L185.94,38.547L186.45,38.539L186.96,38.533L187.47,38.527L187.98,38.521L188.49,38.517L189,38.512L189.51,38.508L190.02,38.505L190.53,38.502L191.04,38.5L191.55,38.497L192.05,38.495L192.56,38.493L193.07,38.492L193.58,38.49L194.09,38.489L194.6,38.488L195.11,38.487L195.62,38.486L196.13,38.485L196.64,38.485L197.15,38.484L197.66,38.484L198.17,38.483L198.68,38.483L199.19,38.483L199.7,38.482L200.21,38.482L200.72,38.482L201.23,38.482L201.73,38.481L202.24,38.481L202.75,38.481L203.26,38.481L203.77,38.481L204.28,38.481L204.79,38.481L205.3,38.481L205.81,38.481L206.32,38.481L206.83,38.481L207.34,38.481L207.85,38.481L208.36,38.481L208.87,38.481L209.38,38.481L209.89,38.481L210.4,38.481L210.91,38.481L211.41,38.481L211.92,38.481L212.43,38.48L212.94,38.48L213.45,38.48L213.96,38.48L214.47,38.48L214.98,38.48L215.49,38.48L216,38.48" style="fill:none;stroke:#FF7F0E" />
<path d="M82.841,39.671L85.395,39.877L92.196,40.811L94.332,41.436L94.354,41.933L96.462,43.142L97.766,43.494L98.608,43.557L99.599,44.7L101.1,45.018L101.92,45.08L102.09,45.678L102.12,46.145L102.5,46.15L104.5,47.497L104.84,48.815L105,49.122L105.12,49.179L106.58,49.797L106.62,49.969L106.97,50.434L107.26,51.231L107.35,52.23L108.1,53.199L108.9,53.415L109.23,53.737L109.42,54.107L109.64,54.359L109.84,55.264L109.88,55.384L110.42,55.5L110.44,55.633L110.63,55.724L110.76,55.922L111.01,56.858L111.18,56.98L111.41,57.97L111.41,58.482L111.55,58.492L111.64,59.034L112.26,59.059L112.64,59.341L113.18,59.765L113.22,59.897L113.5,60.356L113.71,61.167L113.85,61.587L113.97,62.207L114.17,62.244L114.35,62.268L114.51,62.611L114.76,62.616L114.86,62.706L115.09,62.801L115.14,62.817L115.33,62.965L115.36,63.038L115.46,63.36L115.48,63.363L115.59,63.581L115.86,63.987L116.14,64.159L116.35,64.246L116.46,64.255L116.55,64.342L116.58,64.484L116.69,64.627L116.79,64.909L116.81,65.054L116.87,65.225L116.89,65.245L117.17,65.406L117.3,65.507L117.4,65.627L117.57,65.653L117.98,65.771L118.07,65.828L118.45,65.95L118.5,65.97L118.54,66.078L118.56,66.229L118.82,66.408L118.91,66.516L119.01,66.826L119.06,66.861L119.09,67.072L119.49,67.304L119.61,67.305L119.62,67.418L120.35,67.452L120.74,67.655L120.76,67.735L120.8,67.77L120.88,68.024L120.88,68.067L120.95,68.283L121.01,68.286L121.18,68.489L121.23,68.555L121.26,68.563L121.48,68.587L121.69,68.803L121.88,69.072L122.03,69.109L122.04,69.354L122.07,69.844L122.11,70.255L122.5,70.241L122.85,70.27L122.89,70.374L122.92,70.526L123.06,70.593L123.24,70.589L123.3,70.651L123.3,70.774L123.49,70.838L123.53,70.867L123.77,71.312L123.94,71.49L123.98,71.536L124.1,71.611L124.32,71.603L124.41,71.64L124.5,71.726L124.55,72L124.55,72.017L124.75,72.088L124.92,72.092L124.93,72.137L125,72.182L125.06,72.23L125.12,72.287L125.24,72.307L125.45,72.31L125.9,72.381L125.95,72.444L125.98,72.484L126.08,72.589L126.09,72.603L126.09,72.61L126.11,72.632L126.14,72.648L126.17,72.777L126.33,72.777L126.38,72.776L126.39,72.84L126.44,72.941L126.49,72.948L126.55,72.954L126.64,72.971L126.68,72.978L126.83,72.974L126.97,72.994L127.16,73.008L127.2,73.015L127.25,73.028L127.46,73.019L127.48,73.021L127.53,73.038L127.56,73.054L127.57,73.066L127.6,73.08L127.68,73.08L128.17,73.051L128.39,73.044L128.42,73.043L128.54,73.04L128.79,73.024L128.96,73.014L129.06,73.007L129.14,73.003L129.22,72.998L129.43,72.983L129.47,72.981L129.49,72.98L129.84,72.957L129.87,72.955L129.9,72.953L130.01,72.947L130.09,72.941L130.21,72.934L130.3,72.93L130.47,72.918L130.53,72.919L130.53,72.921L130.66,72.913L130.67,72.912L130.77,72.922L131.05,72.916L131.11,72.925L131.12,72.926L131.19,72.937L131.26,72.936L131.38,72.95L131.8,72.924L131.84,72.935L131.92,72.931L132.03,72.95L132.18,72.966L132.48,72.945L132.68,72.996L132.76,72.991L132.86,72.984L132.86,72.995L132.92,73.001L133.04,72.991L133.15,72.993L133.29,72.995L133.3,73.032L133.33,73.031L133.34,73.042L133.39,73.04L133.42,73.04L133.51,73.035L133.59,73.035L133.63,73.032L133.64,73.034L133.66,73.048L133.76,73.041L133.79,73.042L134.1,73.02L134.33,73.002L134.5,72.991L134.64,72.981L134.67,72.979L134.69,72.977L134.71,72.973L134.95,72.949L134.99,72.938L135.01,72.92L135.3,72.891L135.5,72.873L135.57,72.861L135.66,72.853L135.67,72.845L135.71,72.832L135.78,72.804L135.88,72.785L135.91,72.738L135.91,72.737L135.94,72.73L135.98,72.721L136,72.716L136.26,72.631L136.37,72.609L136.42,72.552L136.42,72.545L136.69,72.452L136.77,72.398L136.86,72.375L137.04,72.352L137.07,72.265L137.1,72.257L137.11,72.252L137.24,72.068L137.43,72.003L137.45,71.97L137.47,71.955L137.57,71.933L137.57,71.901L137.62,71.631L137.88,71.39L138.08,71.342L138.18,71.208L138.3,71.19L138.4,71.137L138.45,71.072L138.5,71.026L138.67,70.995L139.38,70.761L139.53,70.384L139.56,70.256L139.61,70.065L139.64,69.993L139.68,69.94L139.7,69.928L139.81,69.855L139.86,69.825L140.09,69.681L140.11,69.628L140.12,69.589L140.13,69.46L140.15,69.345L140.19,69.118L140.2,68.956L140.38,68.844L140.45,68.816L140.47,68.667L140.47,68.402L140.47,68.239L140.76,68.066L140.83,67.982L140.91,67.887L141.09,67.849L141.17,67.7L141.26,67.568L141.27,67.557L141.29,67.513L141.3,67.503L141.31,67.274L141.46,67.245L141.47,67.1L141.8,66.982L142.13,66.84L142.13,66.751L142.15,66.608L142.17,66.597L142.18,66.517L142.19,66.478L142.35,66.206L142.37,66.135L142.52,65.889L142.53,65.755L142.77,65.152L143.21,64.995L143.58,64.555L143.61,64.323L143.66,64.252L143.91,64.209L144,64.036L144.04,63.911L144.34,63.21L144.59,62.571L144.67,62.538L144.74,61.973L144.89,61.843L145.18,60.779L145.23,60.685L145.4,60.516L145.74,60.415L145.93,60.357L145.96,60.204L146.05,60.006L146.17,59.87L146.19,59.325L146.19,59.298L146.29,59.245L146.38,59.06L146.42,58.52L146.43,58.382L146.55,58.329L146.65,58.32L146.65,58.03L146.87,57.767L146.94,57.7L147.22,57.534L147.29,57.158L147.52,56.798L147.57,56.544L147.6,56.202L148.34,56.083L148.86,54.888L149.01,54.739L149.04,54.142L149.39,53.945L149.5,53.912L149.72,53.541L149.85,53.199L149.92,52.91L150.19,52.71L150.25,52.202L150.49,51.996L150.6,51.583L151.26,51.467L151.47,51.372L151.49,50.704L152.01,49.846L152.01,49.793L152.11,49.767L152.29,49.424L152.44,48.198L152.51,47.825L154.12,47.691L154.32,47.366L154.78,46.992L154.83,46.897L156.07,45.864L156.18,45.657L156.34,45.572L156.92,45.54L157.27,45.109L158.09,44.736L158.71,44.524L159.5,44.343L159.99,44.266L160.14,44.135L160.29,44.118L160.56,43.956L160.79,43.911L162.28,43.582L162.86,43.313L163.01,43.287L163.32,43.201L163.89,43.034L164.57,42.991L165.22,42.208L165.36,42.089L166.01,41.966L166.18,41.806L166.52,41.351" style="fill:none;stroke:#1F77B4" />
<path d="M36.666,210.11L56.666,210.11" style="fill:none;stroke:#FF7F0E" />
<text x="59.666" y="-204.45" transform="scale(1, -1)"
	style="font-family:Times;font-weight:normal;font-style:normal;font-size:12px">analytical</text>
<path d="M36.666,198.33L56.666,198.33" style="fill:none;stroke:#1F77B4" />
<text x="59.666" y="-192.67" transform="scale(1, -1)"
	style="font-family:Times;font-weight:normal;font-style:normal;font-size:12px">proximal</text>
</g>
</svg>
